<svg viewBox="0 0 600 400" xmlns="http://www.w3.org/2000/svg">
<g transform="translate(72, 364)">
<g>
<rect fill="" height="158.31485587583148" stroke="black" width="80" x="40" y="-158.31485587583148"/>
</g>
<g>
<rect fill="" height="309.09090909090907" stroke="black" width="80" x="200" y="-309.09090909090907"/>
</g>
<g>
<rect fill="" height="94.2350332594235" stroke="black" width="80" x="360" y="-94.2350332594235"/>
</g>
<g>
<g>
<line stroke="black" stroke-width="1" x1="80" x2="80" y1="0" y2="10"/>
<line stroke="black" stroke-width="1" x1="240" x2="240" y1="0" y2="10"/>
<line stroke="black" stroke-width="1" x1="400" x2="400" y1="0" y2="10"/>
</g>
<line stroke="black" stroke-width="1" x1="0" x2="480" y1="0" y2="0"/>
<g>
<text font-size="12" text-anchor="middle" x="80" y="20">
Acc.
</text>
<text font-size="12" text-anchor="middle" x="240" y="20">
1
</text>
<text font-size="12" text-anchor="middle" x="400" y="20">
2
</text>
</g>
<text font-size="12" text-anchor="middle" x="240" y="30">
Year
</text>
</g>
<g>
<g>
<line stroke="black" stroke-width="1" x1="0" x2="-10" y1="0" y2="0"/>
<line stroke="black" stroke-width="1" x1="0" x2="-10" y1="-75.3880266075388" y2="-75.3880266075388"/>
<line stroke="black" stroke-width="1" x1="0" x2="-10" y1="-150.7760532150776" y2="-150.7760532150776"/>
<line stroke="black" stroke-width="1" x1="0" x2="-10" y1="-226.1640798226164" y2="-226.1640798226164"/>
<line stroke="black" stroke-width="1" x1="0" x2="-10" y1="-301.5521064301552" y2="-301.5521064301552"/>
</g>
<line stroke="black" stroke-width="1" x1="0" x2="0" y1="0" y2="-340"/>
<g>
<text dominant-baseline="middle" font-size="12" text-anchor="end" x="-15" y="0">
0
</text>
<text dominant-baseline="middle" font-size="12" text-anchor="end" x="-15" y="-75.3880266075388">
20
</text>
<text dominant-baseline="middle" font-size="12" text-anchor="end" x="-15" y="-150.7760532150776">
40
</text>
<text dominant-baseline="middle" font-size="12" text-anchor="end" x="-15" y="-226.1640798226164">
60
</text>
<text dominant-baseline="middle" font-size="12" text-anchor="end" x="-15" y="-301.5521064301552">
80
</text>
</g>
<text font-size="12" text-anchor="middle" transform="rotate(-90 -24 -170)" x="-24" y="-182">

</text>
</g>
</g>
</svg>