<svg viewBox="0 0 600 400" xmlns="http://www.w3.org/2000/svg">
<g transform="translate(72, 364)">
<g>
<rect fill="" height="79.2254676731211" stroke="black" width="13.333333333333334" x="6.666666666666667" y="-79.2254676731211"/>
</g>
<g>
<rect fill="" height="151.7558254020348" stroke="black" width="13.333333333333334" x="33.333333333333336" y="-151.7558254020348"/>
</g>
<g>
<rect fill="" height="170.72530357728914" stroke="black" width="13.333333333333334" x="60.00000000000001" y="-170.72530357728914"/>
</g>
<g>
<rect fill="" height="232.09714473252382" stroke="black" width="13.333333333333334" x="86.66666666666666" y="-232.09714473252382"/>
</g>
<g>
<rect fill="" height="189.6947817525435" stroke="black" width="13.333333333333334" x="113.33333333333333" y="-189.6947817525435"/>
</g>
<g>
<rect fill="" height="195.274040039383" stroke="black" width="13.333333333333334" x="140.00000000000003" y="-195.274040039383"/>
</g>
<g>
<rect fill="" height="174.07285854939286" stroke="black" width="13.333333333333334" x="166.66666666666669" y="-174.07285854939286"/>
</g>
<g>
<rect fill="" height="227.6337381030522" stroke="black" width="13.333333333333334" x="193.33333333333337" y="-227.6337381030522"/>
</g>
<g>
<rect fill="" height="208.66425992779784" stroke="black" width="13.333333333333334" x="220.00000000000003" y="-208.66425992779784"/>
</g>
<g>
<rect fill="" height="235.4446997046275" stroke="black" width="13.333333333333334" x="246.66666666666669" y="-235.4446997046275"/>
</g>
<g>
<rect fill="" height="276.7312110272399" stroke="black" width="13.333333333333334" x="273.3333333333333" y="-276.7312110272399"/>
</g>
<g>
<rect fill="" height="289.00557925828684" stroke="black" width="13.333333333333334" x="300" y="-289.00557925828684"/>
</g>
<g>
<rect fill="" height="309.0909090909091" stroke="black" width="13.333333333333334" x="326.66666666666663" y="-309.0909090909091"/>
</g>
<g>
<rect fill="" height="189.6947817525435" stroke="black" width="13.333333333333334" x="353.3333333333333" y="-189.6947817525435"/>
</g>
<g>
<rect fill="" height="197.5057433541188" stroke="black" width="13.333333333333334" x="380" y="-197.5057433541188"/>
</g>
<g>
<rect fill="" height="296.8165408598622" stroke="black" width="13.333333333333334" x="406.66666666666663" y="-296.8165408598622"/>
</g>
<g>
<rect fill="" height="174.07285854939286" stroke="black" width="13.333333333333334" x="433.3333333333333" y="-174.07285854939286"/>
</g>
<g>
<rect fill="" height="102.65835247784706" stroke="black" width="13.333333333333334" x="460" y="-102.65835247784706"/>
</g>
<g>
<g>
<line stroke="black" stroke-width="1" x1="13.333333333333334" x2="13.333333333333334" y1="0" y2="10"/>
<line stroke="black" stroke-width="1" x1="40" x2="40" y1="0" y2="10"/>
<line stroke="black" stroke-width="1" x1="66.66666666666667" x2="66.66666666666667" y1="0" y2="10"/>
<line stroke="black" stroke-width="1" x1="93.33333333333333" x2="93.33333333333333" y1="0" y2="10"/>
<line stroke="black" stroke-width="1" x1="120" x2="120" y1="0" y2="10"/>
<line stroke="black" stroke-width="1" x1="146.66666666666669" x2="146.66666666666669" y1="0" y2="10"/>
<line stroke="black" stroke-width="1" x1="173.33333333333334" x2="173.33333333333334" y1="0" y2="10"/>
<line stroke="black" stroke-width="1" x1="200.00000000000003" x2="200.00000000000003" y1="0" y2="10"/>
<line stroke="black" stroke-width="1" x1="226.66666666666669" x2="226.66666666666669" y1="0" y2="10"/>
<line stroke="black" stroke-width="1" x1="253.33333333333334" x2="253.33333333333334" y1="0" y2="10"/>
<line stroke="black" stroke-width="1" x1="280" x2="280" y1="0" y2="10"/>
<line stroke="black" stroke-width="1" x1="306.6666666666667" x2="306.6666666666667" y1="0" y2="10"/>
<line stroke="black" stroke-width="1" x1="333.3333333333333" x2="333.3333333333333" y1="0" y2="10"/>
<line stroke="black" stroke-width="1" x1="360" x2="360" y1="0" y2="10"/>
<line stroke="black" stroke-width="1" x1="386.6666666666667" x2="386.6666666666667" y1="0" y2="10"/>
<line stroke="black" stroke-width="1" x1="413.3333333333333" x2="413.3333333333333" y1="0" y2="10"/>
<line stroke="black" stroke-width="1" x1="440" x2="440" y1="0" y2="10"/>
<line stroke="black" stroke-width="1" x1="466.6666666666667" x2="466.6666666666667" y1="0" y2="10"/>
</g>
<line stroke="black" stroke-width="1" x1="0" x2="480" y1="0" y2="0"/>
<g>
<text font-size="12" text-anchor="middle" x="13.333333333333334" y="20">
Acc.
</text>
<text font-size="12" text-anchor="middle" x="40" y="20">
1
</text>
<text font-size="12" text-anchor="middle" x="66.66666666666667" y="20">
2
</text>
<text font-size="12" text-anchor="middle" x="93.33333333333333" y="20">
3
</text>
<text font-size="12" text-anchor="middle" x="120" y="20">
4
</text>
<text font-size="12" text-anchor="middle" x="146.66666666666669" y="20">
5
</text>
<text font-size="12" text-anchor="middle" x="173.33333333333334" y="20">
6
</text>
<text font-size="12" text-anchor="middle" x="200.00000000000003" y="20">
7
</text>
<text font-size="12" text-anchor="middle" x="226.66666666666669" y="20">
8
</text>
<text font-size="12" text-anchor="middle" x="253.33333333333334" y="20">
9
</text>
<text font-size="12" text-anchor="middle" x="280" y="20">
10
</text>
<text font-size="12" text-anchor="middle" x="306.6666666666667" y="20">
11
</text>
<text font-size="12" text-anchor="middle" x="333.3333333333333" y="20">
12
</text>
<text font-size="12" text-anchor="middle" x="360" y="20">
13
</text>
<text font-size="12" text-anchor="middle" x="386.6666666666667" y="20">
14
</text>
<text font-size="12" text-anchor="middle" x="413.3333333333333" y="20">
15
</text>
<text font-size="12" text-anchor="middle" x="440" y="20">
16
</text>
<text font-size="12" text-anchor="middle" x="466.6666666666667" y="20">
17
</text>
</g>
<text font-size="12" text-anchor="middle" x="240" y="30">
Year
</text>
</g>
<g>
<g>
<line stroke="black" stroke-width="1" x1="0" x2="-10" y1="-0" y2="-0"/>
<line stroke="black" stroke-width="1" x1="0" x2="-10" y1="-111.58516573679029" y2="-111.58516573679029"/>
<line stroke="black" stroke-width="1" x1="0" x2="-10" y1="-223.17033147358057" y2="-223.17033147358057"/>
<line stroke="black" stroke-width="1" x1="0" x2="-10" y1="-334.7554972103709" y2="-334.7554972103709"/>
</g>
<line stroke="black" stroke-width="1" x1="0" x2="0" y1="0" y2="-340"/>
<g>
<text dominant-baseline="middle" font-size="12" text-anchor="end" x="-15" y="-0">
0
</text>
<text dominant-baseline="middle" font-size="12" text-anchor="end" x="-15" y="-111.58516573679029">
100
</text>
<text dominant-baseline="middle" font-size="12" text-anchor="end" x="-15" y="-223.17033147358057">
200
</text>
<text dominant-baseline="middle" font-size="12" text-anchor="end" x="-15" y="-334.7554972103709">
300
</text>
</g>
<text font-size="12" text-anchor="middle" transform="rotate(-90 -36 -170)" x="-36" y="-182">

</text>
</g>
</g>
</svg>