<svg viewBox="0 0 600 400" xmlns="http://www.w3.org/2000/svg">
<g transform="translate(72, 364)">
<g>
<rect fill="" height="172.72727272727272" stroke="black" width="26.666666666666668" x="13.333333333333334" y="-172.72727272727272"/>
</g>
<g>
<rect fill="" height="241.8181818181818" stroke="black" width="26.666666666666668" x="66.66666666666667" y="-241.8181818181818"/>
</g>
<g>
<rect fill="" height="247.27272727272728" stroke="black" width="26.666666666666668" x="120.00000000000001" y="-247.27272727272728"/>
</g>
<g>
<rect fill="" height="309.09090909090907" stroke="black" width="26.666666666666668" x="173.33333333333331" y="-309.09090909090907"/>
</g>
<g>
<rect fill="" height="201.8181818181818" stroke="black" width="26.666666666666668" x="226.66666666666666" y="-201.8181818181818"/>
</g>
<g>
<rect fill="" height="198.1818181818182" stroke="black" width="26.666666666666668" x="280.00000000000006" y="-198.1818181818182"/>
</g>
<g>
<rect fill="" height="207.27272727272728" stroke="black" width="26.666666666666668" x="333.33333333333337" y="-207.27272727272728"/>
</g>
<g>
<rect fill="" height="180" stroke="black" width="26.666666666666668" x="386.66666666666674" y="-180"/>
</g>
<g>
<rect fill="" height="34.54545454545455" stroke="black" width="26.666666666666668" x="440.00000000000006" y="-34.54545454545455"/>
</g>
<g>
<g>
<line stroke="black" stroke-width="1" x1="26.666666666666668" x2="26.666666666666668" y1="0" y2="10"/>
<line stroke="black" stroke-width="1" x1="80" x2="80" y1="0" y2="10"/>
<line stroke="black" stroke-width="1" x1="133.33333333333334" x2="133.33333333333334" y1="0" y2="10"/>
<line stroke="black" stroke-width="1" x1="186.66666666666666" x2="186.66666666666666" y1="0" y2="10"/>
<line stroke="black" stroke-width="1" x1="240" x2="240" y1="0" y2="10"/>
<line stroke="black" stroke-width="1" x1="293.33333333333337" x2="293.33333333333337" y1="0" y2="10"/>
<line stroke="black" stroke-width="1" x1="346.6666666666667" x2="346.6666666666667" y1="0" y2="10"/>
<line stroke="black" stroke-width="1" x1="400.00000000000006" x2="400.00000000000006" y1="0" y2="10"/>
<line stroke="black" stroke-width="1" x1="453.33333333333337" x2="453.33333333333337" y1="0" y2="10"/>
</g>
<line stroke="black" stroke-width="1" x1="0" x2="480" y1="0" y2="0"/>
<g>
<text font-size="12" text-anchor="middle" x="26.666666666666668" y="20">
Acc.
</text>
<text font-size="12" text-anchor="middle" x="80" y="20">
1
</text>
<text font-size="12" text-anchor="middle" x="133.33333333333334" y="20">
2
</text>
<text font-size="12" text-anchor="middle" x="186.66666666666666" y="20">
3
</text>
<text font-size="12" text-anchor="middle" x="240" y="20">
4
</text>
<text font-size="12" text-anchor="middle" x="293.33333333333337" y="20">
5
</text>
<text font-size="12" text-anchor="middle" x="346.6666666666667" y="20">
6
</text>
<text font-size="12" text-anchor="middle" x="400.00000000000006" y="20">
7
</text>
<text font-size="12" text-anchor="middle" x="453.33333333333337" y="20">
8
</text>
</g>
<text font-size="12" text-anchor="middle" x="240" y="30">
Year
</text>
</g>
<g>
<g>
<line stroke="black" stroke-width="1" x1="0" x2="-10" y1="-0" y2="-0"/>
<line stroke="black" stroke-width="1" x1="0" x2="-10" y1="-72.72727272727273" y2="-72.72727272727273"/>
<line stroke="black" stroke-width="1" x1="0" x2="-10" y1="-145.45454545454547" y2="-145.45454545454547"/>
<line stroke="black" stroke-width="1" x1="0" x2="-10" y1="-218.1818181818182" y2="-218.1818181818182"/>
<line stroke="black" stroke-width="1" x1="0" x2="-10" y1="-290.90909090909093" y2="-290.90909090909093"/>
</g>
<line stroke="black" stroke-width="1" x1="0" x2="0" y1="0" y2="-340"/>
<g>
<text dominant-baseline="middle" font-size="12" text-anchor="end" x="-15" y="-0">
0
</text>
<text dominant-baseline="middle" font-size="12" text-anchor="end" x="-15" y="-72.72727272727273">
40
</text>
<text dominant-baseline="middle" font-size="12" text-anchor="end" x="-15" y="-145.45454545454547">
80
</text>
<text dominant-baseline="middle" font-size="12" text-anchor="end" x="-15" y="-218.1818181818182">
120
</text>
<text dominant-baseline="middle" font-size="12" text-anchor="end" x="-15" y="-290.90909090909093">
160
</text>
</g>
<text font-size="12" text-anchor="middle" transform="rotate(-90 -36 -170)" x="-36" y="-182">

</text>
</g>
</g>
</svg>