<svg viewBox="0 0 600 400" xmlns="http://www.w3.org/2000/svg">
<g transform="translate(72, 364)">
<g>
<rect fill="" height="38.63636363636363" stroke="black" width="10.909090909090908" x="5.454545454545454" y="-38.63636363636363"/>
</g>
<g>
<rect fill="" height="67.61363636363636" stroke="black" width="10.909090909090908" x="27.272727272727273" y="-67.61363636363636"/>
</g>
<g>
<rect fill="" height="135.22727272727272" stroke="black" width="10.909090909090908" x="49.090909090909086" y="-135.22727272727272"/>
</g>
<g>
<rect fill="" height="86.93181818181817" stroke="black" width="10.909090909090908" x="70.9090909090909" y="-86.93181818181817"/>
</g>
<g>
<rect fill="" height="67.61363636363636" stroke="black" width="10.909090909090908" x="92.72727272727272" y="-67.61363636363636"/>
</g>
<g>
<rect fill="" height="135.22727272727272" stroke="black" width="10.909090909090908" x="114.54545454545453" y="-135.22727272727272"/>
</g>
<g>
<rect fill="" height="193.18181818181816" stroke="black" width="10.909090909090908" x="136.36363636363635" y="-193.18181818181816"/>
</g>
<g>
<rect fill="" height="212.49999999999997" stroke="black" width="10.909090909090908" x="158.18181818181816" y="-212.49999999999997"/>
</g>
<g>
<rect fill="" height="270.45454545454544" stroke="black" width="10.909090909090908" x="179.99999999999997" y="-270.45454545454544"/>
</g>
<g>
<rect fill="" height="222.15909090909088" stroke="black" width="10.909090909090908" x="201.81818181818178" y="-222.15909090909088"/>
</g>
<g>
<rect fill="" height="280.1136363636363" stroke="black" width="10.909090909090908" x="223.6363636363636" y="-280.1136363636363"/>
</g>
<g>
<rect fill="" height="193.18181818181816" stroke="black" width="10.909090909090908" x="245.4545454545454" y="-193.18181818181816"/>
</g>
<g>
<rect fill="" height="260.7954545454545" stroke="black" width="10.909090909090908" x="267.2727272727273" y="-260.7954545454545"/>
</g>
<g>
<rect fill="" height="164.20454545454544" stroke="black" width="10.909090909090908" x="289.0909090909091" y="-164.20454545454544"/>
</g>
<g>
<rect fill="" height="251.13636363636363" stroke="black" width="10.909090909090908" x="310.90909090909093" y="-251.13636363636363"/>
</g>
<g>
<rect fill="" height="251.13636363636363" stroke="black" width="10.909090909090908" x="332.72727272727275" y="-251.13636363636363"/>
</g>
<g>
<rect fill="" height="260.7954545454545" stroke="black" width="10.909090909090908" x="354.54545454545456" y="-260.7954545454545"/>
</g>
<g>
<rect fill="" height="125.56818181818181" stroke="black" width="10.909090909090908" x="376.3636363636364" y="-125.56818181818181"/>
</g>
<g>
<rect fill="" height="280.1136363636363" stroke="black" width="10.909090909090908" x="398.1818181818182" y="-280.1136363636363"/>
</g>
<g>
<rect fill="" height="289.77272727272725" stroke="black" width="10.909090909090908" x="420" y="-289.77272727272725"/>
</g>
<g>
<rect fill="" height="309.09090909090907" stroke="black" width="10.909090909090908" x="441.8181818181818" y="-309.09090909090907"/>
</g>
<g>
<rect fill="" height="67.61363636363636" stroke="black" width="10.909090909090908" x="463.6363636363636" y="-67.61363636363636"/>
</g>
<g>
<g>
<line stroke="black" stroke-width="1" x1="10.909090909090908" x2="10.909090909090908" y1="0" y2="10"/>
<line stroke="black" stroke-width="1" x1="32.72727272727273" x2="32.72727272727273" y1="0" y2="10"/>
<line stroke="black" stroke-width="1" x1="54.54545454545454" x2="54.54545454545454" y1="0" y2="10"/>
<line stroke="black" stroke-width="1" x1="76.36363636363636" x2="76.36363636363636" y1="0" y2="10"/>
<line stroke="black" stroke-width="1" x1="98.18181818181817" x2="98.18181818181817" y1="0" y2="10"/>
<line stroke="black" stroke-width="1" x1="119.99999999999999" x2="119.99999999999999" y1="0" y2="10"/>
<line stroke="black" stroke-width="1" x1="141.8181818181818" x2="141.8181818181818" y1="0" y2="10"/>
<line stroke="black" stroke-width="1" x1="163.63636363636363" x2="163.63636363636363" y1="0" y2="10"/>
<line stroke="black" stroke-width="1" x1="185.45454545454544" x2="185.45454545454544" y1="0" y2="10"/>
<line stroke="black" stroke-width="1" x1="207.27272727272725" x2="207.27272727272725" y1="0" y2="10"/>
<line stroke="black" stroke-width="1" x1="229.09090909090907" x2="229.09090909090907" y1="0" y2="10"/>
<line stroke="black" stroke-width="1" x1="250.90909090909088" x2="250.90909090909088" y1="0" y2="10"/>
<line stroke="black" stroke-width="1" x1="272.72727272727275" x2="272.72727272727275" y1="0" y2="10"/>
<line stroke="black" stroke-width="1" x1="294.54545454545456" x2="294.54545454545456" y1="0" y2="10"/>
<line stroke="black" stroke-width="1" x1="316.3636363636364" x2="316.3636363636364" y1="0" y2="10"/>
<line stroke="black" stroke-width="1" x1="338.1818181818182" x2="338.1818181818182" y1="0" y2="10"/>
<line stroke="black" stroke-width="1" x1="360" x2="360" y1="0" y2="10"/>
<line stroke="black" stroke-width="1" x1="381.8181818181818" x2="381.8181818181818" y1="0" y2="10"/>
<line stroke="black" stroke-width="1" x1="403.6363636363636" x2="403.6363636363636" y1="0" y2="10"/>
<line stroke="black" stroke-width="1" x1="425.45454545454544" x2="425.45454545454544" y1="0" y2="10"/>
<line stroke="black" stroke-width="1" x1="447.27272727272725" x2="447.27272727272725" y1="0" y2="10"/>
<line stroke="black" stroke-width="1" x1="469.09090909090907" x2="469.09090909090907" y1="0" y2="10"/>
</g>
<line stroke="black" stroke-width="1" x1="0" x2="480" y1="0" y2="0"/>
<g>
<text font-size="12" text-anchor="middle" x="10.909090909090908" y="20">
Acc.
</text>
<text font-size="12" text-anchor="middle" x="32.72727272727273" y="20">
1
</text>
<text font-size="12" text-anchor="middle" x="54.54545454545454" y="20">
2
</text>
<text font-size="12" text-anchor="middle" x="76.36363636363636" y="20">
3
</text>
<text font-size="12" text-anchor="middle" x="98.18181818181817" y="20">
4
</text>
<text font-size="12" text-anchor="middle" x="119.99999999999999" y="20">
5
</text>
<text font-size="12" text-anchor="middle" x="141.8181818181818" y="20">
6
</text>
<text font-size="12" text-anchor="middle" x="163.63636363636363" y="20">
7
</text>
<text font-size="12" text-anchor="middle" x="185.45454545454544" y="20">
8
</text>
<text font-size="12" text-anchor="middle" x="207.27272727272725" y="20">
9
</text>
<text font-size="12" text-anchor="middle" x="229.09090909090907" y="20">
10
</text>
<text font-size="12" text-anchor="middle" x="250.90909090909088" y="20">
11
</text>
<text font-size="12" text-anchor="middle" x="272.72727272727275" y="20">
12
</text>
<text font-size="12" text-anchor="middle" x="294.54545454545456" y="20">
13
</text>
<text font-size="12" text-anchor="middle" x="316.3636363636364" y="20">
14
</text>
<text font-size="12" text-anchor="middle" x="338.1818181818182" y="20">
15
</text>
<text font-size="12" text-anchor="middle" x="360" y="20">
16
</text>
<text font-size="12" text-anchor="middle" x="381.8181818181818" y="20">
17
</text>
<text font-size="12" text-anchor="middle" x="403.6363636363636" y="20">
18
</text>
<text font-size="12" text-anchor="middle" x="425.45454545454544" y="20">
19
</text>
<text font-size="12" text-anchor="middle" x="447.27272727272725" y="20">
20
</text>
<text font-size="12" text-anchor="middle" x="469.09090909090907" y="20">
21
</text>
</g>
<text font-size="12" text-anchor="middle" x="240" y="30">
Year
</text>
</g>
<g>
<g>
<line stroke="black" stroke-width="1" x1="0" x2="-10" y1="-0" y2="-0"/>
<line stroke="black" stroke-width="1" x1="0" x2="-10" y1="-96.59090909090908" y2="-96.59090909090908"/>
<line stroke="black" stroke-width="1" x1="0" x2="-10" y1="-193.18181818181816" y2="-193.18181818181816"/>
<line stroke="black" stroke-width="1" x1="0" x2="-10" y1="-289.77272727272725" y2="-289.77272727272725"/>
</g>
<line stroke="black" stroke-width="1" x1="0" x2="0" y1="0" y2="-340"/>
<g>
<text dominant-baseline="middle" font-size="12" text-anchor="end" x="-15" y="-0">
0
</text>
<text dominant-baseline="middle" font-size="12" text-anchor="end" x="-15" y="-96.59090909090908">
10
</text>
<text dominant-baseline="middle" font-size="12" text-anchor="end" x="-15" y="-193.18181818181816">
20
</text>
<text dominant-baseline="middle" font-size="12" text-anchor="end" x="-15" y="-289.77272727272725">
30
</text>
</g>
<text font-size="12" text-anchor="middle" transform="rotate(-90 -24 -170)" x="-24" y="-182">

</text>
</g>
</g>
</svg>