<svg viewBox="0 0 600 400" xmlns="http://www.w3.org/2000/svg">
<g transform="translate(72, 364)">
<g>
<rect fill="" height="0" stroke="black" width="11.428571428571429" x="5.714285714285714" y="0"/>
</g>
<g>
<rect fill="" height="147.18614718614717" stroke="black" width="11.428571428571429" x="28.57142857142857" y="-147.18614718614717"/>
</g>
<g>
<rect fill="" height="103.03030303030302" stroke="black" width="11.428571428571429" x="51.42857142857143" y="-103.03030303030302"/>
</g>
<g>
<rect fill="" height="0" stroke="black" width="11.428571428571429" x="74.28571428571429" y="0"/>
</g>
<g>
<rect fill="" height="29.437229437229437" stroke="black" width="11.428571428571429" x="97.14285714285715" y="-29.437229437229437"/>
</g>
<g>
<rect fill="" height="29.437229437229437" stroke="black" width="11.428571428571429" x="120.00000000000001" y="-29.437229437229437"/>
</g>
<g>
<rect fill="" height="58.874458874458874" stroke="black" width="11.428571428571429" x="142.85714285714283" y="-58.874458874458874"/>
</g>
<g>
<rect fill="" height="88.3116883116883" stroke="black" width="11.428571428571429" x="165.7142857142857" y="-88.3116883116883"/>
</g>
<g>
<rect fill="" height="58.874458874458874" stroke="black" width="11.428571428571429" x="188.57142857142856" y="-58.874458874458874"/>
</g>
<g>
<rect fill="" height="88.3116883116883" stroke="black" width="11.428571428571429" x="211.42857142857142" y="-88.3116883116883"/>
</g>
<g>
<rect fill="" height="132.46753246753246" stroke="black" width="11.428571428571429" x="234.28571428571428" y="-132.46753246753246"/>
</g>
<g>
<rect fill="" height="103.03030303030302" stroke="black" width="11.428571428571429" x="257.14285714285717" y="-103.03030303030302"/>
</g>
<g>
<rect fill="" height="309.09090909090907" stroke="black" width="11.428571428571429" x="280" y="-309.09090909090907"/>
</g>
<g>
<rect fill="" height="147.18614718614717" stroke="black" width="11.428571428571429" x="302.8571428571429" y="-147.18614718614717"/>
</g>
<g>
<rect fill="" height="264.93506493506493" stroke="black" width="11.428571428571429" x="325.7142857142857" y="-264.93506493506493"/>
</g>
<g>
<rect fill="" height="191.34199134199133" stroke="black" width="11.428571428571429" x="348.5714285714286" y="-191.34199134199133"/>
</g>
<g>
<rect fill="" height="191.34199134199133" stroke="black" width="11.428571428571429" x="371.42857142857144" y="-191.34199134199133"/>
</g>
<g>
<rect fill="" height="44.15584415584415" stroke="black" width="11.428571428571429" x="394.2857142857143" y="-44.15584415584415"/>
</g>
<g>
<rect fill="" height="117.74891774891775" stroke="black" width="11.428571428571429" x="417.14285714285717" y="-117.74891774891775"/>
</g>
<g>
<rect fill="" height="161.9047619047619" stroke="black" width="11.428571428571429" x="440" y="-161.9047619047619"/>
</g>
<g>
<rect fill="" height="88.3116883116883" stroke="black" width="11.428571428571429" x="462.8571428571429" y="-88.3116883116883"/>
</g>
<g>
<g>
<line stroke="black" stroke-width="1" x1="11.428571428571429" x2="11.428571428571429" y1="0" y2="10"/>
<line stroke="black" stroke-width="1" x1="34.285714285714285" x2="34.285714285714285" y1="0" y2="10"/>
<line stroke="black" stroke-width="1" x1="57.142857142857146" x2="57.142857142857146" y1="0" y2="10"/>
<line stroke="black" stroke-width="1" x1="80" x2="80" y1="0" y2="10"/>
<line stroke="black" stroke-width="1" x1="102.85714285714286" x2="102.85714285714286" y1="0" y2="10"/>
<line stroke="black" stroke-width="1" x1="125.71428571428572" x2="125.71428571428572" y1="0" y2="10"/>
<line stroke="black" stroke-width="1" x1="148.57142857142856" x2="148.57142857142856" y1="0" y2="10"/>
<line stroke="black" stroke-width="1" x1="171.42857142857142" x2="171.42857142857142" y1="0" y2="10"/>
<line stroke="black" stroke-width="1" x1="194.28571428571428" x2="194.28571428571428" y1="0" y2="10"/>
<line stroke="black" stroke-width="1" x1="217.14285714285714" x2="217.14285714285714" y1="0" y2="10"/>
<line stroke="black" stroke-width="1" x1="240" x2="240" y1="0" y2="10"/>
<line stroke="black" stroke-width="1" x1="262.8571428571429" x2="262.8571428571429" y1="0" y2="10"/>
<line stroke="black" stroke-width="1" x1="285.7142857142857" x2="285.7142857142857" y1="0" y2="10"/>
<line stroke="black" stroke-width="1" x1="308.5714285714286" x2="308.5714285714286" y1="0" y2="10"/>
<line stroke="black" stroke-width="1" x1="331.42857142857144" x2="331.42857142857144" y1="0" y2="10"/>
<line stroke="black" stroke-width="1" x1="354.28571428571433" x2="354.28571428571433" y1="0" y2="10"/>
<line stroke="black" stroke-width="1" x1="377.14285714285717" x2="377.14285714285717" y1="0" y2="10"/>
<line stroke="black" stroke-width="1" x1="400" x2="400" y1="0" y2="10"/>
<line stroke="black" stroke-width="1" x1="422.8571428571429" x2="422.8571428571429" y1="0" y2="10"/>
<line stroke="black" stroke-width="1" x1="445.7142857142857" x2="445.7142857142857" y1="0" y2="10"/>
<line stroke="black" stroke-width="1" x1="468.5714285714286" x2="468.5714285714286" y1="0" y2="10"/>
</g>
<line stroke="black" stroke-width="1" x1="0" x2="480" y1="0" y2="0"/>
<g>
<text font-size="12" text-anchor="middle" x="11.428571428571429" y="20">
Acc.
</text>
<text font-size="12" text-anchor="middle" x="34.285714285714285" y="20">
1
</text>
<text font-size="12" text-anchor="middle" x="57.142857142857146" y="20">
2
</text>
<text font-size="12" text-anchor="middle" x="80" y="20">
3
</text>
<text font-size="12" text-anchor="middle" x="102.85714285714286" y="20">
4
</text>
<text font-size="12" text-anchor="middle" x="125.71428571428572" y="20">
5
</text>
<text font-size="12" text-anchor="middle" x="148.57142857142856" y="20">
6
</text>
<text font-size="12" text-anchor="middle" x="171.42857142857142" y="20">
7
</text>
<text font-size="12" text-anchor="middle" x="194.28571428571428" y="20">
8
</text>
<text font-size="12" text-anchor="middle" x="217.14285714285714" y="20">
9
</text>
<text font-size="12" text-anchor="middle" x="240" y="20">
10
</text>
<text font-size="12" text-anchor="middle" x="262.8571428571429" y="20">
11
</text>
<text font-size="12" text-anchor="middle" x="285.7142857142857" y="20">
12
</text>
<text font-size="12" text-anchor="middle" x="308.5714285714286" y="20">
13
</text>
<text font-size="12" text-anchor="middle" x="331.42857142857144" y="20">
14
</text>
<text font-size="12" text-anchor="middle" x="354.28571428571433" y="20">
15
</text>
<text font-size="12" text-anchor="middle" x="377.14285714285717" y="20">
16
</text>
<text font-size="12" text-anchor="middle" x="400" y="20">
17
</text>
<text font-size="12" text-anchor="middle" x="422.8571428571429" y="20">
18
</text>
<text font-size="12" text-anchor="middle" x="445.7142857142857" y="20">
19
</text>
<text font-size="12" text-anchor="middle" x="468.5714285714286" y="20">
20
</text>
</g>
<text font-size="12" text-anchor="middle" x="240" y="30">
Year
</text>
</g>
<g>
<g>
<line stroke="black" stroke-width="1" x1="0" x2="-10" y1="0" y2="0"/>
<line stroke="black" stroke-width="1" x1="0" x2="-10" y1="-58.874458874458874" y2="-58.874458874458874"/>
<line stroke="black" stroke-width="1" x1="0" x2="-10" y1="-117.74891774891775" y2="-117.74891774891775"/>
<line stroke="black" stroke-width="1" x1="0" x2="-10" y1="-176.6233766233766" y2="-176.6233766233766"/>
<line stroke="black" stroke-width="1" x1="0" x2="-10" y1="-235.4978354978355" y2="-235.4978354978355"/>
<line stroke="black" stroke-width="1" x1="0" x2="-10" y1="-294.37229437229433" y2="-294.37229437229433"/>
</g>
<line stroke="black" stroke-width="1" x1="0" x2="0" y1="0" y2="-340"/>
<g>
<text dominant-baseline="middle" font-size="12" text-anchor="end" x="-15" y="0">
0
</text>
<text dominant-baseline="middle" font-size="12" text-anchor="end" x="-15" y="-58.874458874458874">
4
</text>
<text dominant-baseline="middle" font-size="12" text-anchor="end" x="-15" y="-117.74891774891775">
8
</text>
<text dominant-baseline="middle" font-size="12" text-anchor="end" x="-15" y="-176.6233766233766">
12
</text>
<text dominant-baseline="middle" font-size="12" text-anchor="end" x="-15" y="-235.4978354978355">
16
</text>
<text dominant-baseline="middle" font-size="12" text-anchor="end" x="-15" y="-294.37229437229433">
20
</text>
</g>
<text font-size="12" text-anchor="middle" transform="rotate(-90 -24 -170)" x="-24" y="-182">

</text>
</g>
</g>
</svg>