<?xml version="1.0" encoding="utf-8" standalone="no"?>
<!DOCTYPE svg PUBLIC "-//W3C//DTD SVG 1.1//EN"
  "http://www.w3.org/Graphics/SVG/1.1/DTD/svg11.dtd">
<svg xmlns:xlink="http://www.w3.org/1999/xlink" width="460.8pt" height="345.6pt" viewBox="0 0 460.8 345.6" xmlns="http://www.w3.org/2000/svg" version="1.1">
 <metadata>
  <rdf:RDF xmlns:dc="http://purl.org/dc/elements/1.1/" xmlns:cc="http://creativecommons.org/ns#" xmlns:rdf="http://www.w3.org/1999/02/22-rdf-syntax-ns#">
   <cc:Work>
    <dc:type rdf:resource="http://purl.org/dc/dcmitype/StillImage"/>
    <dc:date>2022-05-19T02:48:52.506361</dc:date>
    <dc:format>image/svg+xml</dc:format>
    <dc:creator>
     <cc:Agent>
      <dc:title>Matplotlib v3.5.2, https://matplotlib.org/</dc:title>
     </cc:Agent>
    </dc:creator>
   </cc:Work>
  </rdf:RDF>
 </metadata>
 <defs>
  <style type="text/css">*{stroke-linejoin: round; stroke-linecap: butt}</style>
 </defs>
 <g id="figure_1">
  <g id="patch_1">
   <path d="M 0 345.6 
L 460.8 345.6 
L 460.8 0 
L 0 0 
z
" style="fill: #ffffff"/>
  </g>
  <g id="axes_1">
   <g id="patch_2">
    <path d="M 57.6 307.584 
L 414.72 307.584 
L 414.72 41.472 
L 57.6 41.472 
z
" style="fill: #ffffff"/>
   </g>
   <g id="matplotlib.axis_1">
    <g id="xtick_1">
     <g id="line2d_1">
      <defs>
       <path id="m32d09249c9" d="M 0 0 
L 0 3.5 
" style="stroke: #000000; stroke-width: 0.8"/>
      </defs>
      <g>
       <use xlink:href="#m32d09249c9" x="73.372348" y="307.584" style="stroke: #000000; stroke-width: 0.8"/>
      </g>
     </g>
     <g id="text_1">
      <!-- 43 -->
      <g transform="translate(67.009848 322.182437)scale(0.1 -0.1)">
       <defs>
        <path id="DejaVuSans-34" d="M 2419 4116 
L 825 1625 
L 2419 1625 
L 2419 4116 
z
M 2253 4666 
L 3047 4666 
L 3047 1625 
L 3713 1625 
L 3713 1100 
L 3047 1100 
L 3047 0 
L 2419 0 
L 2419 1100 
L 313 1100 
L 313 1709 
L 2253 4666 
z
" transform="scale(0.015625)"/>
        <path id="DejaVuSans-33" d="M 2597 2516 
Q 3050 2419 3304 2112 
Q 3559 1806 3559 1356 
Q 3559 666 3084 287 
Q 2609 -91 1734 -91 
Q 1441 -91 1130 -33 
Q 819 25 488 141 
L 488 750 
Q 750 597 1062 519 
Q 1375 441 1716 441 
Q 2309 441 2620 675 
Q 2931 909 2931 1356 
Q 2931 1769 2642 2001 
Q 2353 2234 1838 2234 
L 1294 2234 
L 1294 2753 
L 1863 2753 
Q 2328 2753 2575 2939 
Q 2822 3125 2822 3475 
Q 2822 3834 2567 4026 
Q 2313 4219 1838 4219 
Q 1578 4219 1281 4162 
Q 984 4106 628 3988 
L 628 4550 
Q 988 4650 1302 4700 
Q 1616 4750 1894 4750 
Q 2613 4750 3031 4423 
Q 3450 4097 3450 3541 
Q 3450 3153 3228 2886 
Q 3006 2619 2597 2516 
z
" transform="scale(0.015625)"/>
       </defs>
       <use xlink:href="#DejaVuSans-34"/>
       <use xlink:href="#DejaVuSans-33" x="63.623047"/>
      </g>
     </g>
    </g>
    <g id="xtick_2">
     <g id="line2d_2">
      <g>
       <use xlink:href="#m32d09249c9" x="236.51219" y="307.584" style="stroke: #000000; stroke-width: 0.8"/>
      </g>
     </g>
     <g id="text_2">
      <!-- 44 -->
      <g transform="translate(230.14969 322.182437)scale(0.1 -0.1)">
       <use xlink:href="#DejaVuSans-34"/>
       <use xlink:href="#DejaVuSans-34" x="63.623047"/>
      </g>
     </g>
    </g>
    <g id="xtick_3">
     <g id="line2d_3">
      <g>
       <use xlink:href="#m32d09249c9" x="399.652031" y="307.584" style="stroke: #000000; stroke-width: 0.8"/>
      </g>
     </g>
     <g id="text_3">
      <!-- 45 -->
      <g transform="translate(393.289531 322.182437)scale(0.1 -0.1)">
       <defs>
        <path id="DejaVuSans-35" d="M 691 4666 
L 3169 4666 
L 3169 4134 
L 1269 4134 
L 1269 2991 
Q 1406 3038 1543 3061 
Q 1681 3084 1819 3084 
Q 2600 3084 3056 2656 
Q 3513 2228 3513 1497 
Q 3513 744 3044 326 
Q 2575 -91 1722 -91 
Q 1428 -91 1123 -41 
Q 819 9 494 109 
L 494 744 
Q 775 591 1075 516 
Q 1375 441 1709 441 
Q 2250 441 2565 725 
Q 2881 1009 2881 1497 
Q 2881 1984 2565 2268 
Q 2250 2553 1709 2553 
Q 1456 2553 1204 2497 
Q 953 2441 691 2322 
L 691 4666 
z
" transform="scale(0.015625)"/>
       </defs>
       <use xlink:href="#DejaVuSans-34"/>
       <use xlink:href="#DejaVuSans-35" x="63.623047"/>
      </g>
     </g>
    </g>
    <g id="text_4">
     <!-- Nebuchadnezzar II Years -->
     <g transform="translate(174.91 335.860562)scale(0.1 -0.1)">
      <defs>
       <path id="DejaVuSans-4e" d="M 628 4666 
L 1478 4666 
L 3547 763 
L 3547 4666 
L 4159 4666 
L 4159 0 
L 3309 0 
L 1241 3903 
L 1241 0 
L 628 0 
L 628 4666 
z
" transform="scale(0.015625)"/>
       <path id="DejaVuSans-65" d="M 3597 1894 
L 3597 1613 
L 953 1613 
Q 991 1019 1311 708 
Q 1631 397 2203 397 
Q 2534 397 2845 478 
Q 3156 559 3463 722 
L 3463 178 
Q 3153 47 2828 -22 
Q 2503 -91 2169 -91 
Q 1331 -91 842 396 
Q 353 884 353 1716 
Q 353 2575 817 3079 
Q 1281 3584 2069 3584 
Q 2775 3584 3186 3129 
Q 3597 2675 3597 1894 
z
M 3022 2063 
Q 3016 2534 2758 2815 
Q 2500 3097 2075 3097 
Q 1594 3097 1305 2825 
Q 1016 2553 972 2059 
L 3022 2063 
z
" transform="scale(0.015625)"/>
       <path id="DejaVuSans-62" d="M 3116 1747 
Q 3116 2381 2855 2742 
Q 2594 3103 2138 3103 
Q 1681 3103 1420 2742 
Q 1159 2381 1159 1747 
Q 1159 1113 1420 752 
Q 1681 391 2138 391 
Q 2594 391 2855 752 
Q 3116 1113 3116 1747 
z
M 1159 2969 
Q 1341 3281 1617 3432 
Q 1894 3584 2278 3584 
Q 2916 3584 3314 3078 
Q 3713 2572 3713 1747 
Q 3713 922 3314 415 
Q 2916 -91 2278 -91 
Q 1894 -91 1617 61 
Q 1341 213 1159 525 
L 1159 0 
L 581 0 
L 581 4863 
L 1159 4863 
L 1159 2969 
z
" transform="scale(0.015625)"/>
       <path id="DejaVuSans-75" d="M 544 1381 
L 544 3500 
L 1119 3500 
L 1119 1403 
Q 1119 906 1312 657 
Q 1506 409 1894 409 
Q 2359 409 2629 706 
Q 2900 1003 2900 1516 
L 2900 3500 
L 3475 3500 
L 3475 0 
L 2900 0 
L 2900 538 
Q 2691 219 2414 64 
Q 2138 -91 1772 -91 
Q 1169 -91 856 284 
Q 544 659 544 1381 
z
M 1991 3584 
L 1991 3584 
z
" transform="scale(0.015625)"/>
       <path id="DejaVuSans-63" d="M 3122 3366 
L 3122 2828 
Q 2878 2963 2633 3030 
Q 2388 3097 2138 3097 
Q 1578 3097 1268 2742 
Q 959 2388 959 1747 
Q 959 1106 1268 751 
Q 1578 397 2138 397 
Q 2388 397 2633 464 
Q 2878 531 3122 666 
L 3122 134 
Q 2881 22 2623 -34 
Q 2366 -91 2075 -91 
Q 1284 -91 818 406 
Q 353 903 353 1747 
Q 353 2603 823 3093 
Q 1294 3584 2113 3584 
Q 2378 3584 2631 3529 
Q 2884 3475 3122 3366 
z
" transform="scale(0.015625)"/>
       <path id="DejaVuSans-68" d="M 3513 2113 
L 3513 0 
L 2938 0 
L 2938 2094 
Q 2938 2591 2744 2837 
Q 2550 3084 2163 3084 
Q 1697 3084 1428 2787 
Q 1159 2491 1159 1978 
L 1159 0 
L 581 0 
L 581 4863 
L 1159 4863 
L 1159 2956 
Q 1366 3272 1645 3428 
Q 1925 3584 2291 3584 
Q 2894 3584 3203 3211 
Q 3513 2838 3513 2113 
z
" transform="scale(0.015625)"/>
       <path id="DejaVuSans-61" d="M 2194 1759 
Q 1497 1759 1228 1600 
Q 959 1441 959 1056 
Q 959 750 1161 570 
Q 1363 391 1709 391 
Q 2188 391 2477 730 
Q 2766 1069 2766 1631 
L 2766 1759 
L 2194 1759 
z
M 3341 1997 
L 3341 0 
L 2766 0 
L 2766 531 
Q 2569 213 2275 61 
Q 1981 -91 1556 -91 
Q 1019 -91 701 211 
Q 384 513 384 1019 
Q 384 1609 779 1909 
Q 1175 2209 1959 2209 
L 2766 2209 
L 2766 2266 
Q 2766 2663 2505 2880 
Q 2244 3097 1772 3097 
Q 1472 3097 1187 3025 
Q 903 2953 641 2809 
L 641 3341 
Q 956 3463 1253 3523 
Q 1550 3584 1831 3584 
Q 2591 3584 2966 3190 
Q 3341 2797 3341 1997 
z
" transform="scale(0.015625)"/>
       <path id="DejaVuSans-64" d="M 2906 2969 
L 2906 4863 
L 3481 4863 
L 3481 0 
L 2906 0 
L 2906 525 
Q 2725 213 2448 61 
Q 2172 -91 1784 -91 
Q 1150 -91 751 415 
Q 353 922 353 1747 
Q 353 2572 751 3078 
Q 1150 3584 1784 3584 
Q 2172 3584 2448 3432 
Q 2725 3281 2906 2969 
z
M 947 1747 
Q 947 1113 1208 752 
Q 1469 391 1925 391 
Q 2381 391 2643 752 
Q 2906 1113 2906 1747 
Q 2906 2381 2643 2742 
Q 2381 3103 1925 3103 
Q 1469 3103 1208 2742 
Q 947 2381 947 1747 
z
" transform="scale(0.015625)"/>
       <path id="DejaVuSans-6e" d="M 3513 2113 
L 3513 0 
L 2938 0 
L 2938 2094 
Q 2938 2591 2744 2837 
Q 2550 3084 2163 3084 
Q 1697 3084 1428 2787 
Q 1159 2491 1159 1978 
L 1159 0 
L 581 0 
L 581 3500 
L 1159 3500 
L 1159 2956 
Q 1366 3272 1645 3428 
Q 1925 3584 2291 3584 
Q 2894 3584 3203 3211 
Q 3513 2838 3513 2113 
z
" transform="scale(0.015625)"/>
       <path id="DejaVuSans-7a" d="M 353 3500 
L 3084 3500 
L 3084 2975 
L 922 459 
L 3084 459 
L 3084 0 
L 275 0 
L 275 525 
L 2438 3041 
L 353 3041 
L 353 3500 
z
" transform="scale(0.015625)"/>
       <path id="DejaVuSans-72" d="M 2631 2963 
Q 2534 3019 2420 3045 
Q 2306 3072 2169 3072 
Q 1681 3072 1420 2755 
Q 1159 2438 1159 1844 
L 1159 0 
L 581 0 
L 581 3500 
L 1159 3500 
L 1159 2956 
Q 1341 3275 1631 3429 
Q 1922 3584 2338 3584 
Q 2397 3584 2469 3576 
Q 2541 3569 2628 3553 
L 2631 2963 
z
" transform="scale(0.015625)"/>
       <path id="DejaVuSans-20" transform="scale(0.015625)"/>
       <path id="DejaVuSans-49" d="M 628 4666 
L 1259 4666 
L 1259 0 
L 628 0 
L 628 4666 
z
" transform="scale(0.015625)"/>
       <path id="DejaVuSans-59" d="M -13 4666 
L 666 4666 
L 1959 2747 
L 3244 4666 
L 3922 4666 
L 2272 2222 
L 2272 0 
L 1638 0 
L 1638 2222 
L -13 4666 
z
" transform="scale(0.015625)"/>
       <path id="DejaVuSans-73" d="M 2834 3397 
L 2834 2853 
Q 2591 2978 2328 3040 
Q 2066 3103 1784 3103 
Q 1356 3103 1142 2972 
Q 928 2841 928 2578 
Q 928 2378 1081 2264 
Q 1234 2150 1697 2047 
L 1894 2003 
Q 2506 1872 2764 1633 
Q 3022 1394 3022 966 
Q 3022 478 2636 193 
Q 2250 -91 1575 -91 
Q 1294 -91 989 -36 
Q 684 19 347 128 
L 347 722 
Q 666 556 975 473 
Q 1284 391 1588 391 
Q 1994 391 2212 530 
Q 2431 669 2431 922 
Q 2431 1156 2273 1281 
Q 2116 1406 1581 1522 
L 1381 1569 
Q 847 1681 609 1914 
Q 372 2147 372 2553 
Q 372 3047 722 3315 
Q 1072 3584 1716 3584 
Q 2034 3584 2315 3537 
Q 2597 3491 2834 3397 
z
" transform="scale(0.015625)"/>
      </defs>
      <use xlink:href="#DejaVuSans-4e"/>
      <use xlink:href="#DejaVuSans-65" x="74.804688"/>
      <use xlink:href="#DejaVuSans-62" x="136.328125"/>
      <use xlink:href="#DejaVuSans-75" x="199.804688"/>
      <use xlink:href="#DejaVuSans-63" x="263.183594"/>
      <use xlink:href="#DejaVuSans-68" x="318.164062"/>
      <use xlink:href="#DejaVuSans-61" x="381.542969"/>
      <use xlink:href="#DejaVuSans-64" x="442.822266"/>
      <use xlink:href="#DejaVuSans-6e" x="506.298828"/>
      <use xlink:href="#DejaVuSans-65" x="569.677734"/>
      <use xlink:href="#DejaVuSans-7a" x="631.201172"/>
      <use xlink:href="#DejaVuSans-7a" x="683.691406"/>
      <use xlink:href="#DejaVuSans-61" x="736.181641"/>
      <use xlink:href="#DejaVuSans-72" x="797.460938"/>
      <use xlink:href="#DejaVuSans-20" x="838.574219"/>
      <use xlink:href="#DejaVuSans-49" x="870.361328"/>
      <use xlink:href="#DejaVuSans-49" x="899.853516"/>
      <use xlink:href="#DejaVuSans-20" x="929.345703"/>
      <use xlink:href="#DejaVuSans-59" x="961.132812"/>
      <use xlink:href="#DejaVuSans-65" x="1008.966797"/>
      <use xlink:href="#DejaVuSans-61" x="1070.490234"/>
      <use xlink:href="#DejaVuSans-72" x="1131.769531"/>
      <use xlink:href="#DejaVuSans-73" x="1172.882812"/>
     </g>
    </g>
   </g>
   <g id="EventCollection_1">
    <path d="M 73.832727 93.888 
L 73.832727 174.528 
" clip-path="url(#pdf2f504afb)" style="fill: none; stroke: #0000ff; stroke-width: 1.5"/>
    <path d="M 75.213864 93.888 
L 75.213864 174.528 
" clip-path="url(#pdf2f504afb)" style="fill: none; stroke: #0000ff; stroke-width: 1.5"/>
    <path d="M 77.976137 93.888 
L 77.976137 174.528 
" clip-path="url(#pdf2f504afb)" style="fill: none; stroke: #0000ff; stroke-width: 1.5"/>
    <path d="M 79.817652 93.888 
L 79.817652 174.528 
" clip-path="url(#pdf2f504afb)" style="fill: none; stroke: #0000ff; stroke-width: 1.5"/>
    <path d="M 82.579925 93.888 
L 82.579925 174.528 
" clip-path="url(#pdf2f504afb)" style="fill: none; stroke: #0000ff; stroke-width: 1.5"/>
    <path d="M 90.650366 93.888 
L 90.650366 174.528 
" clip-path="url(#pdf2f504afb)" style="fill: none; stroke: #0000ff; stroke-width: 1.5"/>
    <path d="M 91.110745 93.888 
L 91.110745 174.528 
" clip-path="url(#pdf2f504afb)" style="fill: none; stroke: #0000ff; stroke-width: 1.5"/>
    <path d="M 91.571124 93.888 
L 91.571124 174.528 
" clip-path="url(#pdf2f504afb)" style="fill: none; stroke: #0000ff; stroke-width: 1.5"/>
    <path d="M 92.031502 93.888 
L 92.031502 174.528 
" clip-path="url(#pdf2f504afb)" style="fill: none; stroke: #0000ff; stroke-width: 1.5"/>
    <path d="M 92.031502 93.888 
L 92.031502 174.528 
" clip-path="url(#pdf2f504afb)" style="fill: none; stroke: #0000ff; stroke-width: 1.5"/>
    <path d="M 92.491881 93.888 
L 92.491881 174.528 
" clip-path="url(#pdf2f504afb)" style="fill: none; stroke: #0000ff; stroke-width: 1.5"/>
    <path d="M 92.491881 93.888 
L 92.491881 174.528 
" clip-path="url(#pdf2f504afb)" style="fill: none; stroke: #0000ff; stroke-width: 1.5"/>
    <path d="M 93.412639 93.888 
L 93.412639 174.528 
" clip-path="url(#pdf2f504afb)" style="fill: none; stroke: #0000ff; stroke-width: 1.5"/>
    <path d="M 95.714533 93.888 
L 95.714533 174.528 
" clip-path="url(#pdf2f504afb)" style="fill: none; stroke: #0000ff; stroke-width: 1.5"/>
    <path d="M 97.095669 93.888 
L 97.095669 174.528 
" clip-path="url(#pdf2f504afb)" style="fill: none; stroke: #0000ff; stroke-width: 1.5"/>
    <path d="M 99.397564 93.888 
L 99.397564 174.528 
" clip-path="url(#pdf2f504afb)" style="fill: none; stroke: #0000ff; stroke-width: 1.5"/>
    <path d="M 102.403837 93.888 
L 102.403837 174.528 
" clip-path="url(#pdf2f504afb)" style="fill: none; stroke: #0000ff; stroke-width: 1.5"/>
    <path d="M 105.16611 93.888 
L 105.16611 174.528 
" clip-path="url(#pdf2f504afb)" style="fill: none; stroke: #0000ff; stroke-width: 1.5"/>
    <path d="M 107.468004 93.888 
L 107.468004 174.528 
" clip-path="url(#pdf2f504afb)" style="fill: none; stroke: #0000ff; stroke-width: 1.5"/>
    <path d="M 110.230277 93.888 
L 110.230277 174.528 
" clip-path="url(#pdf2f504afb)" style="fill: none; stroke: #0000ff; stroke-width: 1.5"/>
    <path d="M 120.602612 93.888 
L 120.602612 174.528 
" clip-path="url(#pdf2f504afb)" style="fill: none; stroke: #0000ff; stroke-width: 1.5"/>
    <path d="M 121.983749 93.888 
L 121.983749 174.528 
" clip-path="url(#pdf2f504afb)" style="fill: none; stroke: #0000ff; stroke-width: 1.5"/>
    <path d="M 126.127158 93.888 
L 126.127158 174.528 
" clip-path="url(#pdf2f504afb)" style="fill: none; stroke: #0000ff; stroke-width: 1.5"/>
    <path d="M 130.974947 93.888 
L 130.974947 174.528 
" clip-path="url(#pdf2f504afb)" style="fill: none; stroke: #0000ff; stroke-width: 1.5"/>
    <path d="M 131.435326 93.888 
L 131.435326 174.528 
" clip-path="url(#pdf2f504afb)" style="fill: none; stroke: #0000ff; stroke-width: 1.5"/>
    <path d="M 134.197599 93.888 
L 134.197599 174.528 
" clip-path="url(#pdf2f504afb)" style="fill: none; stroke: #0000ff; stroke-width: 1.5"/>
    <path d="M 137.420251 93.888 
L 137.420251 174.528 
" clip-path="url(#pdf2f504afb)" style="fill: none; stroke: #0000ff; stroke-width: 1.5"/>
    <path d="M 139.722145 93.888 
L 139.722145 174.528 
" clip-path="url(#pdf2f504afb)" style="fill: none; stroke: #0000ff; stroke-width: 1.5"/>
    <path d="M 140.182524 93.888 
L 140.182524 174.528 
" clip-path="url(#pdf2f504afb)" style="fill: none; stroke: #0000ff; stroke-width: 1.5"/>
    <path d="M 144.569934 93.888 
L 144.569934 174.528 
" clip-path="url(#pdf2f504afb)" style="fill: none; stroke: #0000ff; stroke-width: 1.5"/>
    <path d="M 146.411449 93.888 
L 146.411449 174.528 
" clip-path="url(#pdf2f504afb)" style="fill: none; stroke: #0000ff; stroke-width: 1.5"/>
    <path d="M 147.332207 93.888 
L 147.332207 174.528 
" clip-path="url(#pdf2f504afb)" style="fill: none; stroke: #0000ff; stroke-width: 1.5"/>
    <path d="M 147.792586 93.888 
L 147.792586 174.528 
" clip-path="url(#pdf2f504afb)" style="fill: none; stroke: #0000ff; stroke-width: 1.5"/>
    <path d="M 148.252965 93.888 
L 148.252965 174.528 
" clip-path="url(#pdf2f504afb)" style="fill: none; stroke: #0000ff; stroke-width: 1.5"/>
    <path d="M 150.554859 93.888 
L 150.554859 174.528 
" clip-path="url(#pdf2f504afb)" style="fill: none; stroke: #0000ff; stroke-width: 1.5"/>
    <path d="M 152.856753 93.888 
L 152.856753 174.528 
" clip-path="url(#pdf2f504afb)" style="fill: none; stroke: #0000ff; stroke-width: 1.5"/>
   </g>
   <g id="EventCollection_2">
    <path d="M 297.337441 174.528 
L 297.337441 255.168 
" clip-path="url(#pdf2f504afb)" style="fill: none; stroke: #008000; stroke-width: 1.5"/>
    <path d="M 299.639335 174.528 
L 299.639335 255.168 
" clip-path="url(#pdf2f504afb)" style="fill: none; stroke: #008000; stroke-width: 1.5"/>
    <path d="M 315.996594 174.528 
L 315.996594 255.168 
" clip-path="url(#pdf2f504afb)" style="fill: none; stroke: #008000; stroke-width: 1.5"/>
    <path d="M 316.917352 174.528 
L 316.917352 255.168 
" clip-path="url(#pdf2f504afb)" style="fill: none; stroke: #008000; stroke-width: 1.5"/>
    <path d="M 322.22552 174.528 
L 322.22552 255.168 
" clip-path="url(#pdf2f504afb)" style="fill: none; stroke: #008000; stroke-width: 1.5"/>
    <path d="M 324.987793 174.528 
L 324.987793 255.168 
" clip-path="url(#pdf2f504afb)" style="fill: none; stroke: #008000; stroke-width: 1.5"/>
    <path d="M 325.448172 174.528 
L 325.448172 255.168 
" clip-path="url(#pdf2f504afb)" style="fill: none; stroke: #008000; stroke-width: 1.5"/>
    <path d="M 326.368929 174.528 
L 326.368929 255.168 
" clip-path="url(#pdf2f504afb)" style="fill: none; stroke: #008000; stroke-width: 1.5"/>
    <path d="M 326.829308 174.528 
L 326.829308 255.168 
" clip-path="url(#pdf2f504afb)" style="fill: none; stroke: #008000; stroke-width: 1.5"/>
    <path d="M 326.829308 174.528 
L 326.829308 255.168 
" clip-path="url(#pdf2f504afb)" style="fill: none; stroke: #008000; stroke-width: 1.5"/>
    <path d="M 348.034357 174.528 
L 348.034357 255.168 
" clip-path="url(#pdf2f504afb)" style="fill: none; stroke: #008000; stroke-width: 1.5"/>
    <path d="M 348.494736 174.528 
L 348.494736 255.168 
" clip-path="url(#pdf2f504afb)" style="fill: none; stroke: #008000; stroke-width: 1.5"/>
    <path d="M 353.098524 174.528 
L 353.098524 255.168 
" clip-path="url(#pdf2f504afb)" style="fill: none; stroke: #008000; stroke-width: 1.5"/>
    <path d="M 355.400418 174.528 
L 355.400418 255.168 
" clip-path="url(#pdf2f504afb)" style="fill: none; stroke: #008000; stroke-width: 1.5"/>
    <path d="M 355.860797 174.528 
L 355.860797 255.168 
" clip-path="url(#pdf2f504afb)" style="fill: none; stroke: #008000; stroke-width: 1.5"/>
    <path d="M 357.702312 174.528 
L 357.702312 255.168 
" clip-path="url(#pdf2f504afb)" style="fill: none; stroke: #008000; stroke-width: 1.5"/>
    <path d="M 358.867071 174.528 
L 358.867071 255.168 
" clip-path="url(#pdf2f504afb)" style="fill: none; stroke: #008000; stroke-width: 1.5"/>
    <path d="M 359.32745 174.528 
L 359.32745 255.168 
" clip-path="url(#pdf2f504afb)" style="fill: none; stroke: #008000; stroke-width: 1.5"/>
    <path d="M 360.248207 174.528 
L 360.248207 255.168 
" clip-path="url(#pdf2f504afb)" style="fill: none; stroke: #008000; stroke-width: 1.5"/>
    <path d="M 360.708586 174.528 
L 360.708586 255.168 
" clip-path="url(#pdf2f504afb)" style="fill: none; stroke: #008000; stroke-width: 1.5"/>
    <path d="M 366.693511 174.528 
L 366.693511 255.168 
" clip-path="url(#pdf2f504afb)" style="fill: none; stroke: #008000; stroke-width: 1.5"/>
    <path d="M 372.218057 174.528 
L 372.218057 255.168 
" clip-path="url(#pdf2f504afb)" style="fill: none; stroke: #008000; stroke-width: 1.5"/>
    <path d="M 374.303573 174.528 
L 374.303573 255.168 
" clip-path="url(#pdf2f504afb)" style="fill: none; stroke: #008000; stroke-width: 1.5"/>
    <path d="M 380.748876 174.528 
L 380.748876 255.168 
" clip-path="url(#pdf2f504afb)" style="fill: none; stroke: #008000; stroke-width: 1.5"/>
    <path d="M 384.892286 174.528 
L 384.892286 255.168 
" clip-path="url(#pdf2f504afb)" style="fill: none; stroke: #008000; stroke-width: 1.5"/>
    <path d="M 386.057044 174.528 
L 386.057044 255.168 
" clip-path="url(#pdf2f504afb)" style="fill: none; stroke: #008000; stroke-width: 1.5"/>
    <path d="M 386.517423 174.528 
L 386.517423 255.168 
" clip-path="url(#pdf2f504afb)" style="fill: none; stroke: #008000; stroke-width: 1.5"/>
    <path d="M 387.89856 174.528 
L 387.89856 255.168 
" clip-path="url(#pdf2f504afb)" style="fill: none; stroke: #008000; stroke-width: 1.5"/>
    <path d="M 388.358939 174.528 
L 388.358939 255.168 
" clip-path="url(#pdf2f504afb)" style="fill: none; stroke: #008000; stroke-width: 1.5"/>
    <path d="M 388.819317 174.528 
L 388.819317 255.168 
" clip-path="url(#pdf2f504afb)" style="fill: none; stroke: #008000; stroke-width: 1.5"/>
    <path d="M 389.279696 174.528 
L 389.279696 255.168 
" clip-path="url(#pdf2f504afb)" style="fill: none; stroke: #008000; stroke-width: 1.5"/>
    <path d="M 390.660833 174.528 
L 390.660833 255.168 
" clip-path="url(#pdf2f504afb)" style="fill: none; stroke: #008000; stroke-width: 1.5"/>
    <path d="M 391.121211 174.528 
L 391.121211 255.168 
" clip-path="url(#pdf2f504afb)" style="fill: none; stroke: #008000; stroke-width: 1.5"/>
    <path d="M 392.502348 174.528 
L 392.502348 255.168 
" clip-path="url(#pdf2f504afb)" style="fill: none; stroke: #008000; stroke-width: 1.5"/>
    <path d="M 392.962727 174.528 
L 392.962727 255.168 
" clip-path="url(#pdf2f504afb)" style="fill: none; stroke: #008000; stroke-width: 1.5"/>
    <path d="M 394.343863 174.528 
L 394.343863 255.168 
" clip-path="url(#pdf2f504afb)" style="fill: none; stroke: #008000; stroke-width: 1.5"/>
    <path d="M 397.566515 174.528 
L 397.566515 255.168 
" clip-path="url(#pdf2f504afb)" style="fill: none; stroke: #008000; stroke-width: 1.5"/>
    <path d="M 398.487273 174.528 
L 398.487273 255.168 
" clip-path="url(#pdf2f504afb)" style="fill: none; stroke: #008000; stroke-width: 1.5"/>
   </g>
   <g id="patch_3">
    <path d="M 57.6 307.584 
L 57.6 41.472 
" style="fill: none; stroke: #000000; stroke-width: 0.8; stroke-linejoin: miter; stroke-linecap: square"/>
   </g>
   <g id="patch_4">
    <path d="M 414.72 307.584 
L 414.72 41.472 
" style="fill: none; stroke: #000000; stroke-width: 0.8; stroke-linejoin: miter; stroke-linecap: square"/>
   </g>
   <g id="patch_5">
    <path d="M 57.6 307.584 
L 414.72 307.584 
" style="fill: none; stroke: #000000; stroke-width: 0.8; stroke-linejoin: miter; stroke-linecap: square"/>
   </g>
   <g id="patch_6">
    <path d="M 57.6 41.472 
L 414.72 41.472 
" style="fill: none; stroke: #000000; stroke-width: 0.8; stroke-linejoin: miter; stroke-linecap: square"/>
   </g>
   <g id="text_5">
    <!-- Watchtower Scheme -->
    <g transform="translate(174.345 35.472)scale(0.12 -0.12)">
     <defs>
      <path id="DejaVuSans-57" d="M 213 4666 
L 850 4666 
L 1831 722 
L 2809 4666 
L 3519 4666 
L 4500 722 
L 5478 4666 
L 6119 4666 
L 4947 0 
L 4153 0 
L 3169 4050 
L 2175 0 
L 1381 0 
L 213 4666 
z
" transform="scale(0.015625)"/>
      <path id="DejaVuSans-74" d="M 1172 4494 
L 1172 3500 
L 2356 3500 
L 2356 3053 
L 1172 3053 
L 1172 1153 
Q 1172 725 1289 603 
Q 1406 481 1766 481 
L 2356 481 
L 2356 0 
L 1766 0 
Q 1100 0 847 248 
Q 594 497 594 1153 
L 594 3053 
L 172 3053 
L 172 3500 
L 594 3500 
L 594 4494 
L 1172 4494 
z
" transform="scale(0.015625)"/>
      <path id="DejaVuSans-6f" d="M 1959 3097 
Q 1497 3097 1228 2736 
Q 959 2375 959 1747 
Q 959 1119 1226 758 
Q 1494 397 1959 397 
Q 2419 397 2687 759 
Q 2956 1122 2956 1747 
Q 2956 2369 2687 2733 
Q 2419 3097 1959 3097 
z
M 1959 3584 
Q 2709 3584 3137 3096 
Q 3566 2609 3566 1747 
Q 3566 888 3137 398 
Q 2709 -91 1959 -91 
Q 1206 -91 779 398 
Q 353 888 353 1747 
Q 353 2609 779 3096 
Q 1206 3584 1959 3584 
z
" transform="scale(0.015625)"/>
      <path id="DejaVuSans-77" d="M 269 3500 
L 844 3500 
L 1563 769 
L 2278 3500 
L 2956 3500 
L 3675 769 
L 4391 3500 
L 4966 3500 
L 4050 0 
L 3372 0 
L 2619 2869 
L 1863 0 
L 1184 0 
L 269 3500 
z
" transform="scale(0.015625)"/>
      <path id="DejaVuSans-53" d="M 3425 4513 
L 3425 3897 
Q 3066 4069 2747 4153 
Q 2428 4238 2131 4238 
Q 1616 4238 1336 4038 
Q 1056 3838 1056 3469 
Q 1056 3159 1242 3001 
Q 1428 2844 1947 2747 
L 2328 2669 
Q 3034 2534 3370 2195 
Q 3706 1856 3706 1288 
Q 3706 609 3251 259 
Q 2797 -91 1919 -91 
Q 1588 -91 1214 -16 
Q 841 59 441 206 
L 441 856 
Q 825 641 1194 531 
Q 1563 422 1919 422 
Q 2459 422 2753 634 
Q 3047 847 3047 1241 
Q 3047 1584 2836 1778 
Q 2625 1972 2144 2069 
L 1759 2144 
Q 1053 2284 737 2584 
Q 422 2884 422 3419 
Q 422 4038 858 4394 
Q 1294 4750 2059 4750 
Q 2388 4750 2728 4690 
Q 3069 4631 3425 4513 
z
" transform="scale(0.015625)"/>
      <path id="DejaVuSans-6d" d="M 3328 2828 
Q 3544 3216 3844 3400 
Q 4144 3584 4550 3584 
Q 5097 3584 5394 3201 
Q 5691 2819 5691 2113 
L 5691 0 
L 5113 0 
L 5113 2094 
Q 5113 2597 4934 2840 
Q 4756 3084 4391 3084 
Q 3944 3084 3684 2787 
Q 3425 2491 3425 1978 
L 3425 0 
L 2847 0 
L 2847 2094 
Q 2847 2600 2669 2842 
Q 2491 3084 2119 3084 
Q 1678 3084 1418 2786 
Q 1159 2488 1159 1978 
L 1159 0 
L 581 0 
L 581 3500 
L 1159 3500 
L 1159 2956 
Q 1356 3278 1631 3431 
Q 1906 3584 2284 3584 
Q 2666 3584 2933 3390 
Q 3200 3197 3328 2828 
z
" transform="scale(0.015625)"/>
     </defs>
     <use xlink:href="#DejaVuSans-57"/>
     <use xlink:href="#DejaVuSans-61" x="92.501953"/>
     <use xlink:href="#DejaVuSans-74" x="153.78125"/>
     <use xlink:href="#DejaVuSans-63" x="192.990234"/>
     <use xlink:href="#DejaVuSans-68" x="247.970703"/>
     <use xlink:href="#DejaVuSans-74" x="311.349609"/>
     <use xlink:href="#DejaVuSans-6f" x="350.558594"/>
     <use xlink:href="#DejaVuSans-77" x="411.740234"/>
     <use xlink:href="#DejaVuSans-65" x="493.527344"/>
     <use xlink:href="#DejaVuSans-72" x="555.050781"/>
     <use xlink:href="#DejaVuSans-20" x="596.164062"/>
     <use xlink:href="#DejaVuSans-53" x="627.951172"/>
     <use xlink:href="#DejaVuSans-63" x="691.427734"/>
     <use xlink:href="#DejaVuSans-68" x="746.408203"/>
     <use xlink:href="#DejaVuSans-65" x="809.787109"/>
     <use xlink:href="#DejaVuSans-6d" x="871.310547"/>
     <use xlink:href="#DejaVuSans-65" x="968.722656"/>
    </g>
   </g>
   <g id="legend_1">
    <g id="patch_7">
     <path d="M 282.7825 78.82825 
L 407.72 78.82825 
Q 409.72 78.82825 409.72 76.82825 
L 409.72 48.472 
Q 409.72 46.472 407.72 46.472 
L 282.7825 46.472 
Q 280.7825 46.472 280.7825 48.472 
L 280.7825 76.82825 
Q 280.7825 78.82825 282.7825 78.82825 
z
" style="fill: #ffffff; opacity: 0.8; stroke: #cccccc; stroke-linejoin: miter"/>
    </g>
    <g id="line2d_4">
     <path d="M 284.7825 54.570437 
L 304.7825 54.570437 
" style="fill: none; stroke: #0000ff; stroke-width: 1.5"/>
    </g>
    <g id="text_6">
     <!-- Nebuchadnezzar II -->
     <g transform="translate(312.7825 58.070437)scale(0.1 -0.1)">
      <use xlink:href="#DejaVuSans-4e"/>
      <use xlink:href="#DejaVuSans-65" x="74.804688"/>
      <use xlink:href="#DejaVuSans-62" x="136.328125"/>
      <use xlink:href="#DejaVuSans-75" x="199.804688"/>
      <use xlink:href="#DejaVuSans-63" x="263.183594"/>
      <use xlink:href="#DejaVuSans-68" x="318.164062"/>
      <use xlink:href="#DejaVuSans-61" x="381.542969"/>
      <use xlink:href="#DejaVuSans-64" x="442.822266"/>
      <use xlink:href="#DejaVuSans-6e" x="506.298828"/>
      <use xlink:href="#DejaVuSans-65" x="569.677734"/>
      <use xlink:href="#DejaVuSans-7a" x="631.201172"/>
      <use xlink:href="#DejaVuSans-7a" x="683.691406"/>
      <use xlink:href="#DejaVuSans-61" x="736.181641"/>
      <use xlink:href="#DejaVuSans-72" x="797.460938"/>
      <use xlink:href="#DejaVuSans-20" x="838.574219"/>
      <use xlink:href="#DejaVuSans-49" x="870.361328"/>
      <use xlink:href="#DejaVuSans-49" x="899.853516"/>
     </g>
    </g>
    <g id="line2d_5">
     <path d="M 284.7825 69.248562 
L 304.7825 69.248562 
" style="fill: none; stroke: #008000; stroke-width: 1.5"/>
    </g>
    <g id="text_7">
     <!-- Amel-Marduk -->
     <g transform="translate(312.7825 72.748562)scale(0.1 -0.1)">
      <defs>
       <path id="DejaVuSans-41" d="M 2188 4044 
L 1331 1722 
L 3047 1722 
L 2188 4044 
z
M 1831 4666 
L 2547 4666 
L 4325 0 
L 3669 0 
L 3244 1197 
L 1141 1197 
L 716 0 
L 50 0 
L 1831 4666 
z
" transform="scale(0.015625)"/>
       <path id="DejaVuSans-6c" d="M 603 4863 
L 1178 4863 
L 1178 0 
L 603 0 
L 603 4863 
z
" transform="scale(0.015625)"/>
       <path id="DejaVuSans-2d" d="M 313 2009 
L 1997 2009 
L 1997 1497 
L 313 1497 
L 313 2009 
z
" transform="scale(0.015625)"/>
       <path id="DejaVuSans-4d" d="M 628 4666 
L 1569 4666 
L 2759 1491 
L 3956 4666 
L 4897 4666 
L 4897 0 
L 4281 0 
L 4281 4097 
L 3078 897 
L 2444 897 
L 1241 4097 
L 1241 0 
L 628 0 
L 628 4666 
z
" transform="scale(0.015625)"/>
       <path id="DejaVuSans-6b" d="M 581 4863 
L 1159 4863 
L 1159 1991 
L 2875 3500 
L 3609 3500 
L 1753 1863 
L 3688 0 
L 2938 0 
L 1159 1709 
L 1159 0 
L 581 0 
L 581 4863 
z
" transform="scale(0.015625)"/>
      </defs>
      <use xlink:href="#DejaVuSans-41"/>
      <use xlink:href="#DejaVuSans-6d" x="68.408203"/>
      <use xlink:href="#DejaVuSans-65" x="165.820312"/>
      <use xlink:href="#DejaVuSans-6c" x="227.34375"/>
      <use xlink:href="#DejaVuSans-2d" x="255.126953"/>
      <use xlink:href="#DejaVuSans-4d" x="291.210938"/>
      <use xlink:href="#DejaVuSans-61" x="377.490234"/>
      <use xlink:href="#DejaVuSans-72" x="438.769531"/>
      <use xlink:href="#DejaVuSans-64" x="478.132812"/>
      <use xlink:href="#DejaVuSans-75" x="541.609375"/>
      <use xlink:href="#DejaVuSans-6b" x="604.988281"/>
     </g>
    </g>
   </g>
  </g>
 </g>
 <defs>
  <clipPath id="pdf2f504afb">
   <rect x="57.6" y="41.472" width="357.12" height="266.112"/>
  </clipPath>
 </defs>
</svg>
