<svg viewBox="0 0 600 400" xmlns="http://www.w3.org/2000/svg">
<g transform="translate(72, 364)">
<g>
<rect fill="" height="68.05671392827355" stroke="black" width="5.454545454545454" x="2.727272727272727" y="-68.05671392827355"/>
</g>
<g>
<rect fill="" height="138.94912427022518" stroke="black" width="5.454545454545454" x="13.636363636363637" y="-138.94912427022518"/>
</g>
<g>
<rect fill="" height="153.1276063386155" stroke="black" width="5.454545454545454" x="24.545454545454543" y="-153.1276063386155"/>
</g>
<g>
<rect fill="" height="167.30608840700583" stroke="black" width="5.454545454545454" x="35.45454545454545" y="-167.30608840700583"/>
</g>
<g>
<rect fill="" height="110.59216013344454" stroke="black" width="5.454545454545454" x="46.36363636363636" y="-110.59216013344454"/>
</g>
<g>
<rect fill="" height="104.92076730608841" stroke="black" width="5.454545454545454" x="57.272727272727266" y="-104.92076730608841"/>
</g>
<g>
<rect fill="" height="79.39949958298581" stroke="black" width="5.454545454545454" x="68.18181818181817" y="-79.39949958298581"/>
</g>
<g>
<rect fill="" height="85.07089241034194" stroke="black" width="5.454545454545454" x="79.09090909090908" y="-85.07089241034194"/>
</g>
<g>
<rect fill="" height="104.92076730608841" stroke="black" width="5.454545454545454" x="89.99999999999999" y="-104.92076730608841"/>
</g>
<g>
<rect fill="" height="96.41367806505421" stroke="black" width="5.454545454545454" x="100.90909090909089" y="-96.41367806505421"/>
</g>
<g>
<rect fill="" height="90.74228523769808" stroke="black" width="5.454545454545454" x="111.8181818181818" y="-90.74228523769808"/>
</g>
<g>
<rect fill="" height="124.77064220183486" stroke="black" width="5.454545454545454" x="122.7272727272727" y="-124.77064220183486"/>
</g>
<g>
<rect fill="" height="189.99165971643035" stroke="black" width="5.454545454545454" x="133.63636363636365" y="-189.99165971643035"/>
</g>
<g>
<rect fill="" height="138.94912427022518" stroke="black" width="5.454545454545454" x="144.54545454545456" y="-138.94912427022518"/>
</g>
<g>
<rect fill="" height="172.97748123436196" stroke="black" width="5.454545454545454" x="155.45454545454547" y="-172.97748123436196"/>
</g>
<g>
<rect fill="" height="116.26355296080067" stroke="black" width="5.454545454545454" x="166.36363636363637" y="-116.26355296080067"/>
</g>
<g>
<rect fill="" height="133.27773144286905" stroke="black" width="5.454545454545454" x="177.27272727272728" y="-133.27773144286905"/>
</g>
<g>
<rect fill="" height="150.29190992493744" stroke="black" width="5.454545454545454" x="188.1818181818182" y="-150.29190992493744"/>
</g>
<g>
<rect fill="" height="178.6488740617181" stroke="black" width="5.454545454545454" x="199.0909090909091" y="-178.6488740617181"/>
</g>
<g>
<rect fill="" height="175.81317764804004" stroke="black" width="5.454545454545454" x="210" y="-175.81317764804004"/>
</g>
<g>
<rect fill="" height="218.348623853211" stroke="black" width="5.454545454545454" x="220.9090909090909" y="-218.348623853211"/>
</g>
<g>
<rect fill="" height="207.00583819849874" stroke="black" width="5.454545454545454" x="231.8181818181818" y="-207.00583819849874"/>
</g>
<g>
<rect fill="" height="255.21267723102585" stroke="black" width="5.454545454545454" x="242.72727272727272" y="-255.21267723102585"/>
</g>
<g>
<rect fill="" height="161.6346955796497" stroke="black" width="5.454545454545454" x="253.6363636363636" y="-161.6346955796497"/>
</g>
<g>
<rect fill="" height="107.75646371976647" stroke="black" width="5.454545454545454" x="264.5454545454545" y="-107.75646371976647"/>
</g>
<g>
<rect fill="" height="107.75646371976647" stroke="black" width="5.454545454545454" x="275.4545454545454" y="-107.75646371976647"/>
</g>
<g>
<rect fill="" height="133.27773144286905" stroke="black" width="5.454545454545454" x="286.3636363636363" y="-133.27773144286905"/>
</g>
<g>
<rect fill="" height="90.74228523769808" stroke="black" width="5.454545454545454" x="297.2727272727272" y="-90.74228523769808"/>
</g>
<g>
<rect fill="" height="104.92076730608841" stroke="black" width="5.454545454545454" x="308.18181818181813" y="-104.92076730608841"/>
</g>
<g>
<rect fill="" height="87.90658882402002" stroke="black" width="5.454545454545454" x="319.090909090909" y="-87.90658882402002"/>
</g>
<g>
<rect fill="" height="153.1276063386155" stroke="black" width="5.454545454545454" x="329.99999999999994" y="-153.1276063386155"/>
</g>
<g>
<rect fill="" height="124.77064220183486" stroke="black" width="5.454545454545454" x="340.9090909090908" y="-124.77064220183486"/>
</g>
<g>
<rect fill="" height="90.74228523769808" stroke="black" width="5.454545454545454" x="351.81818181818176" y="-90.74228523769808"/>
</g>
<g>
<rect fill="" height="133.27773144286905" stroke="black" width="5.454545454545454" x="362.7272727272727" y="-133.27773144286905"/>
</g>
<g>
<rect fill="" height="138.94912427022518" stroke="black" width="5.454545454545454" x="373.63636363636357" y="-138.94912427022518"/>
</g>
<g>
<rect fill="" height="138.94912427022518" stroke="black" width="5.454545454545454" x="384.5454545454545" y="-138.94912427022518"/>
</g>
<g>
<rect fill="" height="309.09090909090907" stroke="black" width="5.454545454545454" x="395.4545454545454" y="-309.09090909090907"/>
</g>
<g>
<rect fill="" height="229.69140950792325" stroke="black" width="5.454545454545454" x="406.3636363636363" y="-229.69140950792325"/>
</g>
<g>
<rect fill="" height="207.00583819849874" stroke="black" width="5.454545454545454" x="417.2727272727272" y="-207.00583819849874"/>
</g>
<g>
<rect fill="" height="207.00583819849874" stroke="black" width="5.454545454545454" x="428.18181818181813" y="-207.00583819849874"/>
</g>
<g>
<rect fill="" height="235.36280233527938" stroke="black" width="5.454545454545454" x="439.090909090909" y="-235.36280233527938"/>
</g>
<g>
<rect fill="" height="224.02001668056712" stroke="black" width="5.454545454545454" x="449.99999999999994" y="-224.02001668056712"/>
</g>
<g>
<rect fill="" height="226.8557130942452" stroke="black" width="5.454545454545454" x="460.9090909090908" y="-226.8557130942452"/>
</g>
<g>
<rect fill="" height="107.75646371976647" stroke="black" width="5.454545454545454" x="471.81818181818176" y="-107.75646371976647"/>
</g>
<g>
<g>
<line stroke="black" stroke-width="1" x1="5.454545454545454" x2="5.454545454545454" y1="0" y2="10"/>
<line stroke="black" stroke-width="1" x1="16.363636363636363" x2="16.363636363636363" y1="0" y2="10"/>
<line stroke="black" stroke-width="1" x1="27.27272727272727" x2="27.27272727272727" y1="0" y2="10"/>
<line stroke="black" stroke-width="1" x1="38.18181818181818" x2="38.18181818181818" y1="0" y2="10"/>
<line stroke="black" stroke-width="1" x1="49.090909090909086" x2="49.090909090909086" y1="0" y2="10"/>
<line stroke="black" stroke-width="1" x1="59.99999999999999" x2="59.99999999999999" y1="0" y2="10"/>
<line stroke="black" stroke-width="1" x1="70.9090909090909" x2="70.9090909090909" y1="0" y2="10"/>
<line stroke="black" stroke-width="1" x1="81.81818181818181" x2="81.81818181818181" y1="0" y2="10"/>
<line stroke="black" stroke-width="1" x1="92.72727272727272" x2="92.72727272727272" y1="0" y2="10"/>
<line stroke="black" stroke-width="1" x1="103.63636363636363" x2="103.63636363636363" y1="0" y2="10"/>
<line stroke="black" stroke-width="1" x1="114.54545454545453" x2="114.54545454545453" y1="0" y2="10"/>
<line stroke="black" stroke-width="1" x1="125.45454545454544" x2="125.45454545454544" y1="0" y2="10"/>
<line stroke="black" stroke-width="1" x1="136.36363636363637" x2="136.36363636363637" y1="0" y2="10"/>
<line stroke="black" stroke-width="1" x1="147.27272727272728" x2="147.27272727272728" y1="0" y2="10"/>
<line stroke="black" stroke-width="1" x1="158.1818181818182" x2="158.1818181818182" y1="0" y2="10"/>
<line stroke="black" stroke-width="1" x1="169.0909090909091" x2="169.0909090909091" y1="0" y2="10"/>
<line stroke="black" stroke-width="1" x1="180" x2="180" y1="0" y2="10"/>
<line stroke="black" stroke-width="1" x1="190.9090909090909" x2="190.9090909090909" y1="0" y2="10"/>
<line stroke="black" stroke-width="1" x1="201.8181818181818" x2="201.8181818181818" y1="0" y2="10"/>
<line stroke="black" stroke-width="1" x1="212.72727272727272" x2="212.72727272727272" y1="0" y2="10"/>
<line stroke="black" stroke-width="1" x1="223.63636363636363" x2="223.63636363636363" y1="0" y2="10"/>
<line stroke="black" stroke-width="1" x1="234.54545454545453" x2="234.54545454545453" y1="0" y2="10"/>
<line stroke="black" stroke-width="1" x1="245.45454545454544" x2="245.45454545454544" y1="0" y2="10"/>
<line stroke="black" stroke-width="1" x1="256.3636363636363" x2="256.3636363636363" y1="0" y2="10"/>
<line stroke="black" stroke-width="1" x1="267.27272727272725" x2="267.27272727272725" y1="0" y2="10"/>
<line stroke="black" stroke-width="1" x1="278.18181818181813" x2="278.18181818181813" y1="0" y2="10"/>
<line stroke="black" stroke-width="1" x1="289.09090909090907" x2="289.09090909090907" y1="0" y2="10"/>
<line stroke="black" stroke-width="1" x1="299.99999999999994" x2="299.99999999999994" y1="0" y2="10"/>
<line stroke="black" stroke-width="1" x1="310.9090909090909" x2="310.9090909090909" y1="0" y2="10"/>
<line stroke="black" stroke-width="1" x1="321.81818181818176" x2="321.81818181818176" y1="0" y2="10"/>
<line stroke="black" stroke-width="1" x1="332.7272727272727" x2="332.7272727272727" y1="0" y2="10"/>
<line stroke="black" stroke-width="1" x1="343.63636363636357" x2="343.63636363636357" y1="0" y2="10"/>
<line stroke="black" stroke-width="1" x1="354.5454545454545" x2="354.5454545454545" y1="0" y2="10"/>
<line stroke="black" stroke-width="1" x1="365.45454545454544" x2="365.45454545454544" y1="0" y2="10"/>
<line stroke="black" stroke-width="1" x1="376.3636363636363" x2="376.3636363636363" y1="0" y2="10"/>
<line stroke="black" stroke-width="1" x1="387.27272727272725" x2="387.27272727272725" y1="0" y2="10"/>
<line stroke="black" stroke-width="1" x1="398.18181818181813" x2="398.18181818181813" y1="0" y2="10"/>
<line stroke="black" stroke-width="1" x1="409.09090909090907" x2="409.09090909090907" y1="0" y2="10"/>
<line stroke="black" stroke-width="1" x1="419.99999999999994" x2="419.99999999999994" y1="0" y2="10"/>
<line stroke="black" stroke-width="1" x1="430.9090909090909" x2="430.9090909090909" y1="0" y2="10"/>
<line stroke="black" stroke-width="1" x1="441.81818181818176" x2="441.81818181818176" y1="0" y2="10"/>
<line stroke="black" stroke-width="1" x1="452.7272727272727" x2="452.7272727272727" y1="0" y2="10"/>
<line stroke="black" stroke-width="1" x1="463.63636363636357" x2="463.63636363636357" y1="0" y2="10"/>
<line stroke="black" stroke-width="1" x1="474.5454545454545" x2="474.5454545454545" y1="0" y2="10"/>
</g>
<line stroke="black" stroke-width="1" x1="0" x2="480" y1="0" y2="0"/>
<g>
<text font-size="12" text-anchor="middle" x="5.454545454545454" y="20">
Acc.
</text>
<text font-size="12" text-anchor="middle" x="16.363636363636363" y="20">
1
</text>
<text font-size="12" text-anchor="middle" x="27.27272727272727" y="20">
2
</text>
<text font-size="12" text-anchor="middle" x="38.18181818181818" y="20">
3
</text>
<text font-size="12" text-anchor="middle" x="49.090909090909086" y="20">
4
</text>
<text font-size="12" text-anchor="middle" x="59.99999999999999" y="20">
5
</text>
<text font-size="12" text-anchor="middle" x="70.9090909090909" y="20">
6
</text>
<text font-size="12" text-anchor="middle" x="81.81818181818181" y="20">
7
</text>
<text font-size="12" text-anchor="middle" x="92.72727272727272" y="20">
8
</text>
<text font-size="12" text-anchor="middle" x="103.63636363636363" y="20">
9
</text>
<text font-size="12" text-anchor="middle" x="114.54545454545453" y="20">
10
</text>
<text font-size="12" text-anchor="middle" x="125.45454545454544" y="20">
11
</text>
<text font-size="12" text-anchor="middle" x="136.36363636363637" y="20">
12
</text>
<text font-size="12" text-anchor="middle" x="147.27272727272728" y="20">
13
</text>
<text font-size="12" text-anchor="middle" x="158.1818181818182" y="20">
14
</text>
<text font-size="12" text-anchor="middle" x="169.0909090909091" y="20">
15
</text>
<text font-size="12" text-anchor="middle" x="180" y="20">
16
</text>
<text font-size="12" text-anchor="middle" x="190.9090909090909" y="20">
17
</text>
<text font-size="12" text-anchor="middle" x="201.8181818181818" y="20">
18
</text>
<text font-size="12" text-anchor="middle" x="212.72727272727272" y="20">
19
</text>
<text font-size="12" text-anchor="middle" x="223.63636363636363" y="20">
20
</text>
<text font-size="12" text-anchor="middle" x="234.54545454545453" y="20">
21
</text>
<text font-size="12" text-anchor="middle" x="245.45454545454544" y="20">
22
</text>
<text font-size="12" text-anchor="middle" x="256.3636363636363" y="20">
23
</text>
<text font-size="12" text-anchor="middle" x="267.27272727272725" y="20">
24
</text>
<text font-size="12" text-anchor="middle" x="278.18181818181813" y="20">
25
</text>
<text font-size="12" text-anchor="middle" x="289.09090909090907" y="20">
26
</text>
<text font-size="12" text-anchor="middle" x="299.99999999999994" y="20">
27
</text>
<text font-size="12" text-anchor="middle" x="310.9090909090909" y="20">
28
</text>
<text font-size="12" text-anchor="middle" x="321.81818181818176" y="20">
29
</text>
<text font-size="12" text-anchor="middle" x="332.7272727272727" y="20">
30
</text>
<text font-size="12" text-anchor="middle" x="343.63636363636357" y="20">
31
</text>
<text font-size="12" text-anchor="middle" x="354.5454545454545" y="20">
32
</text>
<text font-size="12" text-anchor="middle" x="365.45454545454544" y="20">
33
</text>
<text font-size="12" text-anchor="middle" x="376.3636363636363" y="20">
34
</text>
<text font-size="12" text-anchor="middle" x="387.27272727272725" y="20">
35
</text>
<text font-size="12" text-anchor="middle" x="398.18181818181813" y="20">
36
</text>
<text font-size="12" text-anchor="middle" x="409.09090909090907" y="20">
37
</text>
<text font-size="12" text-anchor="middle" x="419.99999999999994" y="20">
38
</text>
<text font-size="12" text-anchor="middle" x="430.9090909090909" y="20">
39
</text>
<text font-size="12" text-anchor="middle" x="441.81818181818176" y="20">
40
</text>
<text font-size="12" text-anchor="middle" x="452.7272727272727" y="20">
41
</text>
<text font-size="12" text-anchor="middle" x="463.63636363636357" y="20">
42
</text>
<text font-size="12" text-anchor="middle" x="474.5454545454545" y="20">
43
</text>
</g>
<text font-size="12" text-anchor="middle" x="240" y="30">
Year
</text>
</g>
<g>
<g>
<line stroke="black" stroke-width="1" x1="0" x2="-10" y1="0" y2="0"/>
<line stroke="black" stroke-width="1" x1="0" x2="-10" y1="-56.7139282735613" y2="-56.7139282735613"/>
<line stroke="black" stroke-width="1" x1="0" x2="-10" y1="-113.4278565471226" y2="-113.4278565471226"/>
<line stroke="black" stroke-width="1" x1="0" x2="-10" y1="-170.14178482068388" y2="-170.14178482068388"/>
<line stroke="black" stroke-width="1" x1="0" x2="-10" y1="-226.8557130942452" y2="-226.8557130942452"/>
<line stroke="black" stroke-width="1" x1="0" x2="-10" y1="-283.56964136780647" y2="-283.56964136780647"/>
</g>
<line stroke="black" stroke-width="1" x1="0" x2="0" y1="0" y2="-340"/>
<g>
<text dominant-baseline="middle" font-size="12" text-anchor="end" x="-15" y="0">
0
</text>
<text dominant-baseline="middle" font-size="12" text-anchor="end" x="-15" y="-56.7139282735613">
20
</text>
<text dominant-baseline="middle" font-size="12" text-anchor="end" x="-15" y="-113.4278565471226">
40
</text>
<text dominant-baseline="middle" font-size="12" text-anchor="end" x="-15" y="-170.14178482068388">
60
</text>
<text dominant-baseline="middle" font-size="12" text-anchor="end" x="-15" y="-226.8557130942452">
80
</text>
<text dominant-baseline="middle" font-size="12" text-anchor="end" x="-15" y="-283.56964136780647">
100
</text>
</g>
<text font-size="12" text-anchor="middle" transform="rotate(-90 -36 -170)" x="-36" y="-182">

</text>
</g>
</g>
</svg>