<svg viewBox="0 0 600 400" xmlns="http://www.w3.org/2000/svg">
<g transform="translate(72, 364)">
<g>
<rect fill="" height="0" stroke="black" width="10.434782608695652" x="5.217391304347826" y="-0"/>
</g>
<g>
<rect fill="" height="51.515151515151516" stroke="black" width="10.434782608695652" x="26.086956521739133" y="-51.515151515151516"/>
</g>
<g>
<rect fill="" height="51.515151515151516" stroke="black" width="10.434782608695652" x="46.95652173913044" y="-51.515151515151516"/>
</g>
<g>
<rect fill="" height="17.17171717171717" stroke="black" width="10.434782608695652" x="67.82608695652173" y="-17.17171717171717"/>
</g>
<g>
<rect fill="" height="68.68686868686868" stroke="black" width="10.434782608695652" x="88.69565217391305" y="-68.68686868686868"/>
</g>
<g>
<rect fill="" height="51.515151515151516" stroke="black" width="10.434782608695652" x="109.56521739130436" y="-51.515151515151516"/>
</g>
<g>
<rect fill="" height="171.7171717171717" stroke="black" width="10.434782608695652" x="130.43478260869566" y="-171.7171717171717"/>
</g>
<g>
<rect fill="" height="85.85858585858585" stroke="black" width="10.434782608695652" x="151.30434782608697" y="-85.85858585858585"/>
</g>
<g>
<rect fill="" height="171.7171717171717" stroke="black" width="10.434782608695652" x="172.17391304347828" y="-171.7171717171717"/>
</g>
<g>
<rect fill="" height="291.9191919191919" stroke="black" width="10.434782608695652" x="193.0434782608696" y="-291.9191919191919"/>
</g>
<g>
<rect fill="" height="154.54545454545453" stroke="black" width="10.434782608695652" x="213.9130434782609" y="-154.54545454545453"/>
</g>
<g>
<rect fill="" height="120.2020202020202" stroke="black" width="10.434782608695652" x="234.7826086956522" y="-120.2020202020202"/>
</g>
<g>
<rect fill="" height="171.7171717171717" stroke="black" width="10.434782608695652" x="255.6521739130435" y="-171.7171717171717"/>
</g>
<g>
<rect fill="" height="223.2323232323232" stroke="black" width="10.434782608695652" x="276.52173913043475" y="-223.2323232323232"/>
</g>
<g>
<rect fill="" height="188.88888888888889" stroke="black" width="10.434782608695652" x="297.39130434782606" y="-188.88888888888889"/>
</g>
<g>
<rect fill="" height="223.2323232323232" stroke="black" width="10.434782608695652" x="318.2608695652174" y="-223.2323232323232"/>
</g>
<g>
<rect fill="" height="137.37373737373736" stroke="black" width="10.434782608695652" x="339.1304347826087" y="-137.37373737373736"/>
</g>
<g>
<rect fill="" height="240.4040404040404" stroke="black" width="10.434782608695652" x="360" y="-240.4040404040404"/>
</g>
<g>
<rect fill="" height="137.37373737373736" stroke="black" width="10.434782608695652" x="380.8695652173913" y="-137.37373737373736"/>
</g>
<g>
<rect fill="" height="291.9191919191919" stroke="black" width="10.434782608695652" x="401.7391304347826" y="-291.9191919191919"/>
</g>
<g>
<rect fill="" height="309.09090909090907" stroke="black" width="10.434782608695652" x="422.60869565217394" y="-309.09090909090907"/>
</g>
<g>
<rect fill="" height="188.88888888888889" stroke="black" width="10.434782608695652" x="443.4782608695652" y="-188.88888888888889"/>
</g>
<g>
<rect fill="" height="17.17171717171717" stroke="black" width="10.434782608695652" x="464.3478260869565" y="-17.17171717171717"/>
</g>
<g>
<g>
<line stroke="black" stroke-width="1" x1="10.434782608695652" x2="10.434782608695652" y1="0" y2="10"/>
<line stroke="black" stroke-width="1" x1="31.304347826086957" x2="31.304347826086957" y1="0" y2="10"/>
<line stroke="black" stroke-width="1" x1="52.173913043478265" x2="52.173913043478265" y1="0" y2="10"/>
<line stroke="black" stroke-width="1" x1="73.04347826086956" x2="73.04347826086956" y1="0" y2="10"/>
<line stroke="black" stroke-width="1" x1="93.91304347826087" x2="93.91304347826087" y1="0" y2="10"/>
<line stroke="black" stroke-width="1" x1="114.78260869565219" x2="114.78260869565219" y1="0" y2="10"/>
<line stroke="black" stroke-width="1" x1="135.65217391304347" x2="135.65217391304347" y1="0" y2="10"/>
<line stroke="black" stroke-width="1" x1="156.52173913043478" x2="156.52173913043478" y1="0" y2="10"/>
<line stroke="black" stroke-width="1" x1="177.3913043478261" x2="177.3913043478261" y1="0" y2="10"/>
<line stroke="black" stroke-width="1" x1="198.2608695652174" x2="198.2608695652174" y1="0" y2="10"/>
<line stroke="black" stroke-width="1" x1="219.13043478260872" x2="219.13043478260872" y1="0" y2="10"/>
<line stroke="black" stroke-width="1" x1="240" x2="240" y1="0" y2="10"/>
<line stroke="black" stroke-width="1" x1="260.8695652173913" x2="260.8695652173913" y1="0" y2="10"/>
<line stroke="black" stroke-width="1" x1="281.73913043478257" x2="281.73913043478257" y1="0" y2="10"/>
<line stroke="black" stroke-width="1" x1="302.6086956521739" x2="302.6086956521739" y1="0" y2="10"/>
<line stroke="black" stroke-width="1" x1="323.4782608695652" x2="323.4782608695652" y1="0" y2="10"/>
<line stroke="black" stroke-width="1" x1="344.3478260869565" x2="344.3478260869565" y1="0" y2="10"/>
<line stroke="black" stroke-width="1" x1="365.2173913043478" x2="365.2173913043478" y1="0" y2="10"/>
<line stroke="black" stroke-width="1" x1="386.0869565217391" x2="386.0869565217391" y1="0" y2="10"/>
<line stroke="black" stroke-width="1" x1="406.95652173913044" x2="406.95652173913044" y1="0" y2="10"/>
<line stroke="black" stroke-width="1" x1="427.82608695652175" x2="427.82608695652175" y1="0" y2="10"/>
<line stroke="black" stroke-width="1" x1="448.695652173913" x2="448.695652173913" y1="0" y2="10"/>
<line stroke="black" stroke-width="1" x1="469.5652173913043" x2="469.5652173913043" y1="0" y2="10"/>
</g>
<line stroke="black" stroke-width="1" x1="0" x2="480" y1="0" y2="0"/>
<g>
<text font-size="12" text-anchor="middle" x="10.434782608695652" y="20">
Acc.
</text>
<text font-size="12" text-anchor="middle" x="31.304347826086957" y="20">
1
</text>
<text font-size="12" text-anchor="middle" x="52.173913043478265" y="20">
2
</text>
<text font-size="12" text-anchor="middle" x="73.04347826086956" y="20">
3
</text>
<text font-size="12" text-anchor="middle" x="93.91304347826087" y="20">
4
</text>
<text font-size="12" text-anchor="middle" x="114.78260869565219" y="20">
5
</text>
<text font-size="12" text-anchor="middle" x="135.65217391304347" y="20">
6
</text>
<text font-size="12" text-anchor="middle" x="156.52173913043478" y="20">
7
</text>
<text font-size="12" text-anchor="middle" x="177.3913043478261" y="20">
8
</text>
<text font-size="12" text-anchor="middle" x="198.2608695652174" y="20">
9
</text>
<text font-size="12" text-anchor="middle" x="219.13043478260872" y="20">
10
</text>
<text font-size="12" text-anchor="middle" x="240" y="20">
11
</text>
<text font-size="12" text-anchor="middle" x="260.8695652173913" y="20">
12
</text>
<text font-size="12" text-anchor="middle" x="281.73913043478257" y="20">
13
</text>
<text font-size="12" text-anchor="middle" x="302.6086956521739" y="20">
14
</text>
<text font-size="12" text-anchor="middle" x="323.4782608695652" y="20">
15
</text>
<text font-size="12" text-anchor="middle" x="344.3478260869565" y="20">
16
</text>
<text font-size="12" text-anchor="middle" x="365.2173913043478" y="20">
17
</text>
<text font-size="12" text-anchor="middle" x="386.0869565217391" y="20">
18
</text>
<text font-size="12" text-anchor="middle" x="406.95652173913044" y="20">
19
</text>
<text font-size="12" text-anchor="middle" x="427.82608695652175" y="20">
20
</text>
<text font-size="12" text-anchor="middle" x="448.695652173913" y="20">
21
</text>
<text font-size="12" text-anchor="middle" x="469.5652173913043" y="20">
22
</text>
</g>
<text font-size="12" text-anchor="middle" x="240" y="30">
Year
</text>
</g>
<g>
<g>
<line stroke="black" stroke-width="1" x1="0" x2="-10" y1="-0" y2="-0"/>
<line stroke="black" stroke-width="1" x1="0" x2="-10" y1="-68.68686868686868" y2="-68.68686868686868"/>
<line stroke="black" stroke-width="1" x1="0" x2="-10" y1="-137.37373737373736" y2="-137.37373737373736"/>
<line stroke="black" stroke-width="1" x1="0" x2="-10" y1="-206.06060606060606" y2="-206.06060606060606"/>
<line stroke="black" stroke-width="1" x1="0" x2="-10" y1="-274.7474747474747" y2="-274.7474747474747"/>
</g>
<line stroke="black" stroke-width="1" x1="0" x2="0" y1="0" y2="-340"/>
<g>
<text dominant-baseline="middle" font-size="12" text-anchor="end" x="-15" y="-0">
0
</text>
<text dominant-baseline="middle" font-size="12" text-anchor="end" x="-15" y="-68.68686868686868">
4
</text>
<text dominant-baseline="middle" font-size="12" text-anchor="end" x="-15" y="-137.37373737373736">
8
</text>
<text dominant-baseline="middle" font-size="12" text-anchor="end" x="-15" y="-206.06060606060606">
12
</text>
<text dominant-baseline="middle" font-size="12" text-anchor="end" x="-15" y="-274.7474747474747">
16
</text>
</g>
<text font-size="12" text-anchor="middle" transform="rotate(-90 -24 -170)" x="-24" y="-182">

</text>
</g>
</g>
</svg>